<svg width="94" height="89" viewBox="0 0 94 89" fill="none" xmlns="http://www.w3.org/2000/svg">
<rect x="0.441025" y="0.602539" width="93.118" height="88.3652" rx="44.1826" fill="#F5F5FF"/>
<path fill-rule="evenodd" clip-rule="evenodd" d="M23.4016 25.2347C23.4016 23.3937 24.8939 21.9014 26.7349 21.9014H65.0682C66.9092 21.9014 68.4016 23.3938 68.4016 25.2347V63.4608C68.4016 65.3017 66.9092 66.7941 65.0682 66.7941H26.7349C24.8939 66.7941 23.4016 65.3017 23.4016 63.4608V25.2347ZM26.7349 23.568C25.8144 23.568 25.0682 24.3142 25.0682 25.2347V63.4608C25.0682 64.3812 25.8144 65.1274 26.7349 65.1274H65.0682C65.9887 65.1274 66.7349 64.3813 66.7349 63.4608V25.2347C66.7349 24.3142 65.9887 23.568 65.0682 23.568H26.7349Z" fill="#002169"/>
<path fill-rule="evenodd" clip-rule="evenodd" d="M67.5682 33.6979H24.2348V32.0312H67.5682V33.6979Z" fill="#002169"/>
<path d="M32.1513 27.8841C32.1513 28.7229 31.4713 29.4029 30.6324 29.4029C29.7936 29.4029 29.1136 28.7229 29.1136 27.8841C29.1136 27.0452 29.7936 26.3652 30.6324 26.3652C31.4713 26.3652 32.1513 27.0452 32.1513 27.8841Z" fill="#002169"/>
<path d="M37.7509 27.8841C37.7509 28.7229 37.0709 29.4029 36.2321 29.4029C35.3933 29.4029 34.7133 28.7229 34.7133 27.8841C34.7133 27.0452 35.3933 26.3652 36.2321 26.3652C37.0709 26.3652 37.7509 27.0452 37.7509 27.8841Z" fill="#002169"/>
<path d="M43.3514 27.8841C43.3514 28.7229 42.6714 29.4029 41.8326 29.4029C40.9937 29.4029 40.3137 28.7229 40.3137 27.8841C40.3137 27.0452 40.9937 26.3652 41.8326 26.3652C42.6714 26.3652 43.3514 27.0452 43.3514 27.8841Z" fill="#002169"/>
<path fill-rule="evenodd" clip-rule="evenodd" d="M41.1588 39.1712C41.1588 38.711 41.5319 38.3379 41.9922 38.3379H62.3776C62.8379 38.3379 63.211 38.711 63.211 39.1712C63.211 39.6315 62.8379 40.0046 62.3776 40.0046H41.9922C41.5319 40.0046 41.1588 39.6315 41.1588 39.1712Z" fill="#002169"/>
<path fill-rule="evenodd" clip-rule="evenodd" d="M41.1588 43.5531C41.1588 43.0928 41.5319 42.7197 41.9922 42.7197H50.0494C50.5096 42.7197 50.8827 43.0928 50.8827 43.5531C50.8827 44.0133 50.5096 44.3864 50.0494 44.3864H41.9922C41.5319 44.3864 41.1588 44.0133 41.1588 43.5531Z" fill="#002169"/>
<path fill-rule="evenodd" clip-rule="evenodd" d="M41.1588 53.6312C41.1588 53.1709 41.5319 52.7979 41.9922 52.7979H62.3776C62.8379 52.7979 63.211 53.1709 63.211 53.6312C63.211 54.0914 62.8379 54.4645 62.3776 54.4645H41.9922C41.5319 54.4645 41.1588 54.0914 41.1588 53.6312Z" fill="#002169"/>
<path fill-rule="evenodd" clip-rule="evenodd" d="M41.1588 58.765C41.1588 58.3047 41.5319 57.9316 41.9922 57.9316H53.4122C53.8724 57.9316 54.2455 58.3047 54.2455 58.765C54.2455 59.2252 53.8724 59.5983 53.4122 59.5983H41.9922C41.5319 59.5983 41.1588 59.2252 41.1588 58.765Z" fill="#002169"/>
<path fill-rule="evenodd" clip-rule="evenodd" d="M33.4938 38.3945C31.2036 38.3945 29.347 40.2511 29.347 42.5414C29.347 44.8316 31.2036 46.6882 33.4938 46.6882C35.784 46.6882 37.6406 44.8316 37.6406 42.5414C37.6406 40.2511 35.784 38.3945 33.4938 38.3945ZM28.097 42.5414C28.097 39.5608 30.5132 37.1445 33.4938 37.1445C36.4744 37.1445 38.8906 39.5608 38.8906 42.5414C38.8906 45.522 36.4744 47.9382 33.4938 47.9382C30.5132 47.9382 28.097 45.522 28.097 42.5414Z" fill="#002169"/>
<path d="M35.3003 42.5416C35.3003 43.5392 34.4916 44.3479 33.494 44.3479C32.4965 44.3479 31.6878 43.5392 31.6878 42.5416C31.6878 41.544 32.4965 40.7354 33.494 40.7354C34.4916 40.7354 35.3003 41.544 35.3003 42.5416Z" fill="#002169"/>
<path fill-rule="evenodd" clip-rule="evenodd" d="M33.4938 52.7412C31.2036 52.7412 29.347 54.5978 29.347 56.8881C29.347 59.1783 31.2036 61.0349 33.4938 61.0349C35.784 61.0349 37.6406 59.1783 37.6406 56.8881C37.6406 54.5978 35.784 52.7412 33.4938 52.7412ZM28.097 56.8881C28.097 53.9075 30.5132 51.4912 33.4938 51.4912C36.4744 51.4912 38.8906 53.9075 38.8906 56.8881C38.8906 59.8687 36.4744 62.2849 33.4938 62.2849C30.5132 62.2849 28.097 59.8687 28.097 56.8881Z" fill="#002169"/>
<path fill-rule="evenodd" clip-rule="evenodd" d="M50.1223 40.9447L58.3019 45.5474L56.2155 46.969L58.2498 49.9547L55.2278 52.0139L53.1934 49.0281L51.077 50.4701L50.1223 40.9447ZM51.9387 48.6225L53.4677 47.5807L55.5021 50.5665L56.8025 49.6804L54.7681 46.6947L56.3279 45.6319L51.3587 42.8357L51.9387 48.6225Z" fill="#002169"/>
<g opacity="0.5">
<path d="M25.1193 28.3096C25.1188 28.451 25.0708 28.5896 24.9808 28.7099C24.8907 28.8302 24.762 28.9276 24.609 28.9913C23.5387 29.4309 22.5844 30.041 21.801 30.7863C21.0175 31.5317 20.4203 32.3976 20.0439 33.3342L19.5521 34.6822C19.4911 34.8355 19.373 34.9689 19.2147 35.0635C19.0564 35.1581 18.866 35.209 18.6706 35.209C18.4752 35.209 18.2848 35.1581 18.1265 35.0635C17.9682 34.9689 17.8501 34.8355 17.7891 34.6822L17.251 33.3342C16.8745 32.3976 16.2773 31.5317 15.4939 30.7863C14.7104 30.041 13.7561 29.4309 12.6858 28.9913C12.5339 28.927 12.4063 28.8293 12.3172 28.7091C12.2282 28.5888 12.181 28.4505 12.181 28.3096C12.181 28.1686 12.2282 28.0304 12.3172 27.9101C12.4063 27.7898 12.5339 27.6922 12.6858 27.6279C13.7561 27.1882 14.7104 26.5782 15.4939 25.8328C16.2773 25.0875 16.8745 24.2216 17.251 23.285L17.7891 21.9369C17.8501 21.7837 17.9682 21.6503 18.1265 21.5557C18.2848 21.4611 18.4752 21.4102 18.6706 21.4102C18.866 21.4102 19.0564 21.4611 19.2147 21.5557C19.373 21.6503 19.4911 21.7837 19.5521 21.9369L20.0903 23.285C20.4667 24.2216 21.0639 25.0875 21.8473 25.8328C22.6308 26.5782 23.5851 27.1882 24.6554 27.6279C24.7997 27.6966 24.919 27.7962 25.0007 27.9162C25.0823 28.0361 25.1233 28.172 25.1193 28.3096ZM90.0703 48.2241C90.0697 48.3655 90.0218 48.5041 89.9317 48.6244C89.8416 48.7447 89.7129 48.8421 89.5599 48.9058C88.4897 49.3454 87.5354 49.9555 86.7519 50.7008C85.9684 51.4462 85.3713 52.3121 84.9948 53.2487L84.503 54.5967C84.442 54.75 84.3239 54.8834 84.1657 54.978C84.0074 55.0726 83.817 55.1235 83.6216 55.1235C83.4261 55.1235 83.2357 55.0726 83.0774 54.978C82.9192 54.8834 82.8011 54.75 82.7401 54.5967L82.2019 53.2487C81.8254 52.3121 81.2283 51.4462 80.4448 50.7008C79.6613 49.9555 78.707 49.3454 77.6368 48.9058C77.4848 48.8415 77.3572 48.7439 77.2682 48.6236C77.1791 48.5033 77.132 48.3651 77.132 48.2241C77.132 48.0831 77.1791 47.9449 77.2682 47.8246C77.3572 47.7043 77.4848 47.6067 77.6368 47.5424C78.707 47.1027 79.6613 46.4927 80.4448 45.7473C81.2283 45.002 81.8254 44.1361 82.2019 43.1995L82.7401 41.8514C82.8011 41.6982 82.9192 41.5648 83.0774 41.4702C83.2357 41.3756 83.4261 41.3247 83.6216 41.3247C83.817 41.3247 84.0074 41.3756 84.1657 41.4702C84.3239 41.5648 84.442 41.6982 84.503 41.8514L85.0412 43.1995C85.4177 44.1361 86.0148 45.002 86.7983 45.7473C87.5818 46.4927 88.5361 47.1027 89.6063 47.5424C89.7507 47.6112 89.87 47.7107 89.9516 47.8307C90.0332 47.9507 90.0742 48.0865 90.0703 48.2241Z" fill="#FFA100"/>
<path d="M6.25369 16.7603C8.11651 16.7603 9.62662 15.1989 9.62662 13.2727C9.62662 11.3466 8.11651 9.78516 6.25369 9.78516C4.39087 9.78516 2.88075 11.3466 2.88075 13.2727C2.88075 15.1989 4.39087 16.7603 6.25369 16.7603Z" fill="#FF4D69"/>
<path d="M90.648 20.2472C92.2556 20.2472 93.5588 18.946 93.5588 17.3409C93.5588 15.7358 92.2556 14.4346 90.648 14.4346C89.0404 14.4346 87.7372 15.7358 87.7372 17.3409C87.7372 18.946 89.0404 20.2472 90.648 20.2472Z" fill="#00C99F"/>
<path d="M3.34713 79.7853C4.95225 79.7853 6.25345 78.4841 6.25345 76.879C6.25345 75.2739 4.95225 73.9727 3.34713 73.9727C1.74201 73.9727 0.440807 75.2739 0.440807 76.879C0.440807 78.4841 1.74201 79.7853 3.34713 79.7853Z" fill="#00C99F"/>
</g>
</svg>
