<svg width="94" height="89" viewBox="0 0 94 89" fill="none" xmlns="http://www.w3.org/2000/svg">
<rect x="0.44104" y="0.602539" width="93.118" height="88.3652" rx="44.1826" fill="#F5F5FF"/>
<path fill-rule="evenodd" clip-rule="evenodd" d="M24.1802 25.6185C24.1802 23.7775 25.6726 22.2852 27.5135 22.2852H65.8468C67.6878 22.2852 69.1802 23.7775 69.1802 25.6185V63.8446C69.1802 65.6855 67.6878 67.1779 65.8468 67.1779H27.5135C25.6726 67.1779 24.1802 65.6855 24.1802 63.8446V25.6185ZM27.5135 23.9518C26.593 23.9518 25.8468 24.698 25.8468 25.6185V63.8446C25.8468 64.765 26.593 65.5112 27.5135 65.5112H65.8468C66.7673 65.5112 67.5135 64.765 67.5135 63.8446V25.6185C67.5135 24.698 66.7673 23.9518 65.8468 23.9518H27.5135Z" fill="#002169"/>
<path fill-rule="evenodd" clip-rule="evenodd" d="M29.6089 33.2484C29.6089 32.7881 29.982 32.415 30.4422 32.415H46.6705C47.1307 32.415 47.5038 32.7881 47.5038 33.2484C47.5038 33.7086 47.1307 34.0817 46.6705 34.0817H30.4422C29.982 34.0817 29.6089 33.7086 29.6089 33.2484Z" fill="#002169"/>
<path fill-rule="evenodd" clip-rule="evenodd" d="M53.3354 33.2484C53.3354 32.7881 53.7085 32.415 54.1688 32.415L63.5516 32.415C64.0119 32.415 64.385 32.7881 64.385 33.2484C64.385 33.7086 64.0119 34.0817 63.5516 34.0817L54.1688 34.0817C53.7085 34.0817 53.3354 33.7086 53.3354 33.2484Z" fill="#002169"/>
<path fill-rule="evenodd" clip-rule="evenodd" d="M41.4849 44.5111C41.4849 44.0508 41.858 43.6777 42.3182 43.6777L63.5517 43.6777C64.0119 43.6777 64.385 44.0508 64.385 44.5111C64.385 44.9713 64.0119 45.3444 63.5517 45.3444L42.3182 45.3444C41.858 45.3444 41.4849 44.9713 41.4849 44.5111Z" fill="#002169"/>
<path fill-rule="evenodd" clip-rule="evenodd" d="M29.6089 44.5111C29.6089 44.0508 29.982 43.6777 30.4422 43.6777L34.3699 43.6777C34.8301 43.6777 35.2032 44.0508 35.2032 44.5111C35.2032 44.9713 34.8301 45.3444 34.3699 45.3444L30.4422 45.3444C29.982 45.3444 29.6089 44.9713 29.6089 44.5111Z" fill="#002169"/>
<path fill-rule="evenodd" clip-rule="evenodd" d="M29.6089 56.4388C29.6089 55.9786 29.982 55.6055 30.4422 55.6055H47.0585C47.5187 55.6055 47.8918 55.9786 47.8918 56.4388C47.8918 56.899 47.5187 57.2721 47.0585 57.2721H30.4422C29.982 57.2721 29.6089 56.899 29.6089 56.4388Z" fill="#002169"/>
<path fill-rule="evenodd" clip-rule="evenodd" d="M53.7905 56.4388C53.7905 55.9786 54.1636 55.6055 54.6239 55.6055H63.5517C64.0119 55.6055 64.385 55.9786 64.385 56.4388C64.385 56.899 64.0119 57.2721 63.5517 57.2721H54.6239C54.1636 57.2721 53.7905 56.899 53.7905 56.4388Z" fill="#002169"/>
<path fill-rule="evenodd" clip-rule="evenodd" d="M50.6732 30.4049C49.2886 30.4049 48.1662 31.5274 48.1662 32.912C48.1662 34.2966 49.2886 35.419 50.6732 35.419C52.0578 35.419 53.1803 34.2966 53.1803 32.912C53.1803 31.5274 52.0578 30.4049 50.6732 30.4049ZM46.4995 32.912C46.4995 30.6069 48.3681 28.7383 50.6732 28.7383C52.9783 28.7383 54.8469 30.6069 54.8469 32.912C54.8469 35.2171 52.9783 37.0857 50.6732 37.0857C48.3681 37.0857 46.4995 35.2171 46.4995 32.912Z" fill="#002169"/>
<path fill-rule="evenodd" clip-rule="evenodd" d="M38.1449 41.8737C36.7603 41.8737 35.6379 42.9961 35.6379 44.3807C35.6379 45.7653 36.7603 46.8878 38.1449 46.8878C39.5295 46.8878 40.6519 45.7653 40.6519 44.3807C40.6519 42.9961 39.5295 41.8737 38.1449 41.8737ZM33.9712 44.3807C33.9712 42.0757 35.8398 40.207 38.1449 40.207C40.45 40.207 42.3186 42.0757 42.3186 44.3807C42.3186 46.6858 40.45 48.5544 38.1449 48.5544C35.8398 48.5544 33.9712 46.6858 33.9712 44.3807Z" fill="#002169"/>
<path fill-rule="evenodd" clip-rule="evenodd" d="M50.6742 53.9635C49.2896 53.9635 48.1672 55.086 48.1672 56.4706C48.1672 57.8552 49.2896 58.9776 50.6742 58.9776C52.0588 58.9776 53.1812 57.8552 53.1812 56.4706C53.1812 55.086 52.0588 53.9635 50.6742 53.9635ZM46.5005 56.4706C46.5005 54.1655 48.3691 52.2969 50.6742 52.2969C52.9793 52.2969 54.8479 54.1655 54.8479 56.4706C54.8479 58.7757 52.9793 60.6443 50.6742 60.6443C48.3691 60.6443 46.5005 58.7757 46.5005 56.4706Z" fill="#002169"/>
<g opacity="0.5">
<path d="M25.1193 28.3096C25.1188 28.451 25.0709 28.5896 24.9808 28.7099C24.8907 28.8302 24.762 28.9276 24.609 28.9913C23.5388 29.4309 22.5844 30.041 21.801 30.7863C21.0175 31.5317 20.4203 32.3976 20.0439 33.3342L19.5521 34.6822C19.4911 34.8355 19.373 34.9689 19.2147 35.0635C19.0565 35.1581 18.866 35.209 18.6706 35.209C18.4752 35.209 18.2848 35.1581 18.1265 35.0635C17.9682 34.9689 17.8502 34.8355 17.7891 34.6822L17.251 33.3342C16.8745 32.3976 16.2774 31.5317 15.4939 30.7863C14.7104 30.041 13.7561 29.4309 12.6859 28.9913C12.5339 28.927 12.4063 28.8293 12.3173 28.7091C12.2282 28.5888 12.1811 28.4505 12.1811 28.3096C12.1811 28.1686 12.2282 28.0304 12.3173 27.9101C12.4063 27.7898 12.5339 27.6922 12.6859 27.6279C13.7561 27.1882 14.7104 26.5782 15.4939 25.8328C16.2774 25.0875 16.8745 24.2216 17.251 23.285L17.7891 21.9369C17.8502 21.7837 17.9682 21.6503 18.1265 21.5557C18.2848 21.4611 18.4752 21.4102 18.6706 21.4102C18.866 21.4102 19.0565 21.4611 19.2147 21.5557C19.373 21.6503 19.4911 21.7837 19.5521 21.9369L20.0903 23.285C20.4667 24.2216 21.0639 25.0875 21.8474 25.8328C22.6308 26.5782 23.5852 27.1882 24.6554 27.6279C24.7998 27.6966 24.919 27.7962 25.0007 27.9162C25.0823 28.0361 25.1233 28.172 25.1193 28.3096ZM90.0703 48.2241C90.0697 48.3655 90.0218 48.5041 89.9317 48.6244C89.8416 48.7447 89.713 48.8421 89.5599 48.9058C88.4897 49.3454 87.5354 49.9555 86.7519 50.7008C85.9684 51.4462 85.3713 52.3121 84.9948 53.2487L84.503 54.5967C84.442 54.75 84.324 54.8834 84.1657 54.978C84.0074 55.0726 83.817 55.1235 83.6216 55.1235C83.4262 55.1235 83.2357 55.0726 83.0775 54.978C82.9192 54.8834 82.8011 54.75 82.7401 54.5967L82.2019 53.2487C81.8255 52.3121 81.2283 51.4462 80.4448 50.7008C79.6614 49.9555 78.707 49.3454 77.6368 48.9058C77.4848 48.8415 77.3573 48.7438 77.2682 48.6236C77.1791 48.5033 77.132 48.3651 77.132 48.2241C77.132 48.0831 77.1791 47.9449 77.2682 47.8246C77.3573 47.7043 77.4848 47.6067 77.6368 47.5424C78.707 47.1027 79.6614 46.4927 80.4448 45.7473C81.2283 45.002 81.8255 44.1361 82.2019 43.1995L82.7401 41.8514C82.8011 41.6982 82.9192 41.5648 83.0775 41.4702C83.2357 41.3756 83.4262 41.3247 83.6216 41.3247C83.817 41.3247 84.0074 41.3756 84.1657 41.4702C84.324 41.5648 84.442 41.6982 84.503 41.8514L85.0412 43.1995C85.4177 44.1361 86.0148 45.002 86.7983 45.7473C87.5818 46.4927 88.5361 47.1027 89.6063 47.5424C89.7507 47.6112 89.87 47.7107 89.9516 47.8307C90.0332 47.9506 90.0742 48.0865 90.0703 48.2241Z" fill="#FFA100"/>
<path d="M6.25367 16.7603C8.11649 16.7603 9.6266 15.1989 9.6266 13.2727C9.6266 11.3466 8.11649 9.78516 6.25367 9.78516C4.39085 9.78516 2.88074 11.3466 2.88074 13.2727C2.88074 15.1989 4.39085 16.7603 6.25367 16.7603Z" fill="#FF4D69"/>
<path d="M90.648 20.2482C92.2556 20.2482 93.5588 18.947 93.5588 17.3419C93.5588 15.7368 92.2556 14.4355 90.648 14.4355C89.0404 14.4355 87.7372 15.7368 87.7372 17.3419C87.7372 18.947 89.0404 20.2482 90.648 20.2482Z" fill="#00C99F"/>
<path d="M3.34715 79.7853C4.95227 79.7853 6.25347 78.4841 6.25347 76.879C6.25347 75.2739 4.95227 73.9727 3.34715 73.9727C1.74203 73.9727 0.440826 75.2739 0.440826 76.879C0.440826 78.4841 1.74203 79.7853 3.34715 79.7853Z" fill="#00C99F"/>
</g>
</svg>
