<svg width="94" height="89" viewBox="0 0 94 89" fill="none" xmlns="http://www.w3.org/2000/svg">
<rect x="2.81744" y="0.602539" width="88.3652" height="88.3652" rx="44.1826" fill="#F5F5FF"/>
<path fill-rule="evenodd" clip-rule="evenodd" d="M46.8476 47.1602C47.22 47.1602 47.5219 47.462 47.5219 47.8344V49.1677H46.1733V47.8344C46.1733 47.462 46.4752 47.1602 46.8476 47.1602ZM46.1733 54.5007V51.8342H47.5219V54.5007H46.1733ZM46.1733 59.8337V57.1672H47.5219V59.8337H46.1733ZM46.1733 63.8335V62.5002H47.5219V63.8335C47.5219 64.2059 47.22 64.5078 46.8476 64.5078C46.4752 64.5078 46.1733 64.2059 46.1733 63.8335Z" fill="#002169"/>
<path fill-rule="evenodd" clip-rule="evenodd" d="M25.8077 44.415C26.3042 44.415 26.7067 44.8175 26.7067 45.314V58.4969L46.4125 65.8341L66.5499 58.4923V45.862C66.5499 45.3655 66.9524 44.963 67.449 44.963C67.9455 44.963 68.348 45.3655 68.348 45.862V59.7506L46.406 67.7502L24.9087 59.746V45.314C24.9087 44.8175 25.3112 44.415 25.8077 44.415Z" fill="#002169"/>
<path fill-rule="evenodd" clip-rule="evenodd" d="M58.5165 31.537C58.6816 31.0687 59.1949 30.8229 59.6632 30.9879L67.0401 33.5873C68.074 33.9516 68.0826 35.4107 67.053 35.7872L47.4705 42.9473C47.2139 43.0411 46.9326 43.0421 46.6754 42.95L26.6641 35.7889C25.6258 35.4174 25.6325 33.9467 26.6741 33.5846L34.1481 30.9866C34.6171 30.8236 35.1294 31.0716 35.2924 31.5406C35.4554 32.0096 35.2074 32.5219 34.7384 32.6849L28.9497 34.6972L47.0668 41.1804L64.7892 34.7005L59.0657 32.6837C58.5974 32.5187 58.3515 32.0053 58.5165 31.537Z" fill="#002169"/>
<path fill-rule="evenodd" clip-rule="evenodd" d="M26.9578 33.9318C27.3733 34.2035 27.49 34.7607 27.2182 35.1762L22.2138 42.8303L40.7701 50.8546L46.5924 40.7242L53.0069 50.8704L71.7553 42.8497L66.1762 35.2147C65.8833 34.8138 65.9708 34.2513 66.3717 33.9584C66.7726 33.6655 67.335 33.753 67.628 34.1539L74.5405 43.6138L52.3057 53.126L46.6657 44.2049L41.5293 53.1418L19.5405 43.6332L25.7134 34.1923C25.9851 33.7767 26.5422 33.6601 26.9578 33.9318Z" fill="#002169"/>
<path fill-rule="evenodd" clip-rule="evenodd" d="M37.3746 27.7124C37.7917 27.4429 38.3482 27.5626 38.6176 27.9796C39.8761 29.9275 42.2234 32.2 45.1409 32.8528C47.9571 33.483 51.5743 32.6591 55.5845 27.889C55.904 27.5089 56.4711 27.4598 56.8511 27.7793C57.2312 28.0988 57.2803 28.6659 56.9607 29.046C52.6429 34.1821 48.3885 35.422 44.7483 34.6075C41.2094 33.8156 38.5156 31.135 37.1074 28.9553C36.8379 28.5383 36.9576 27.9818 37.3746 27.7124Z" fill="#002169"/>
<path d="M43.89 23.2577C43.89 24.3471 43.0068 25.2303 41.9174 25.2303C40.828 25.2303 39.9448 24.3471 39.9448 23.2577C39.9448 22.1683 40.828 21.2852 41.9174 21.2852C43.0068 21.2852 43.89 22.1683 43.89 23.2577Z" fill="#002169"/>
<path d="M53.5325 23.2577C53.5325 24.3471 52.6494 25.2303 51.56 25.2303C50.4706 25.2303 49.5874 24.3471 49.5874 23.2577C49.5874 22.1683 50.4706 21.2852 51.56 21.2852C52.6494 21.2852 53.5325 22.1683 53.5325 23.2577Z" fill="#002169"/>
<path d="M25.1195 28.3096C25.119 28.451 25.0711 28.5896 24.981 28.7099C24.8909 28.8302 24.7622 28.9276 24.6092 28.9913C23.539 29.4309 22.5847 30.041 21.8012 30.7863C21.0177 31.5317 20.4205 32.3976 20.0441 33.3342L19.5523 34.6822C19.4913 34.8355 19.3732 34.9689 19.2149 35.0635C19.0567 35.1581 18.8662 35.209 18.6708 35.209C18.4754 35.209 18.285 35.1581 18.1267 35.0635C17.9684 34.9689 17.8504 34.8355 17.7894 34.6822L17.2512 33.3342C16.8747 32.3976 16.2776 31.5317 15.4941 30.7863C14.7106 30.041 13.7563 29.4309 12.6861 28.9913C12.5341 28.927 12.4065 28.8293 12.3175 28.7091C12.2284 28.5888 12.1813 28.4505 12.1813 28.3096C12.1813 28.1686 12.2284 28.0304 12.3175 27.9101C12.4065 27.7898 12.5341 27.6922 12.6861 27.6279C13.7563 27.1882 14.7106 26.5782 15.4941 25.8328C16.2776 25.0875 16.8747 24.2216 17.2512 23.285L17.7894 21.9369C17.8504 21.7837 17.9684 21.6503 18.1267 21.5557C18.285 21.4611 18.4754 21.4102 18.6708 21.4102C18.8662 21.4102 19.0567 21.4611 19.2149 21.5557C19.3732 21.6503 19.4913 21.7837 19.5523 21.9369L20.0905 23.285C20.4669 24.2216 21.0641 25.0875 21.8476 25.8328C22.6311 26.5782 23.5854 27.1882 24.6556 27.6279C24.8 27.6966 24.9192 27.7962 25.0009 27.9162C25.0825 28.0361 25.1235 28.172 25.1195 28.3096ZM90.0705 48.2241C90.07 48.3655 90.022 48.5041 89.9319 48.6244C89.8419 48.7447 89.7132 48.8421 89.5602 48.9058C88.4899 49.3454 87.5356 49.9555 86.7521 50.7008C85.9687 51.4462 85.3715 52.3121 84.995 53.2487L84.5033 54.5967C84.4422 54.75 84.3242 54.8834 84.1659 54.978C84.0076 55.0726 83.8172 55.1235 83.6218 55.1235C83.4264 55.1235 83.236 55.0726 83.0777 54.978C82.9194 54.8834 82.8013 54.75 82.7403 54.5967L82.2021 53.2487C81.8257 52.3121 81.2285 51.4462 80.4451 50.7008C79.6616 49.9555 78.7072 49.3454 77.637 48.9058C77.485 48.8415 77.3575 48.7438 77.2684 48.6236C77.1793 48.5033 77.1322 48.3651 77.1322 48.2241C77.1322 48.0831 77.1793 47.9449 77.2684 47.8246C77.3575 47.7043 77.485 47.6067 77.637 47.5424C78.7072 47.1027 79.6616 46.4927 80.4451 45.7473C81.2285 45.002 81.8257 44.1361 82.2021 43.1995L82.7403 41.8514C82.8013 41.6982 82.9194 41.5648 83.0777 41.4702C83.236 41.3756 83.4264 41.3247 83.6218 41.3247C83.8172 41.3247 84.0076 41.3756 84.1659 41.4702C84.3242 41.5648 84.4422 41.6982 84.5033 41.8514L85.0414 43.1995C85.4179 44.1361 86.015 45.002 86.7985 45.7473C87.582 46.4927 88.5363 47.1027 89.6065 47.5424C89.7509 47.6112 89.8702 47.7107 89.9518 47.8307C90.0335 47.9506 90.0744 48.0865 90.0705 48.2241Z" fill="#FFA100"/>
<path d="M6.25398 16.7603C8.1168 16.7603 9.62691 15.1989 9.62691 13.2727C9.62691 11.3466 8.1168 9.78516 6.25398 9.78516C4.39116 9.78516 2.88104 11.3466 2.88104 13.2727C2.88104 15.1989 4.39116 16.7603 6.25398 16.7603Z" fill="#FF4D69"/>
<path d="M90.6482 20.2482C92.2558 20.2482 93.559 18.947 93.559 17.3419C93.559 15.7368 92.2558 14.4355 90.6482 14.4355C89.0406 14.4355 87.7374 15.7368 87.7374 17.3419C87.7374 18.947 89.0406 20.2482 90.6482 20.2482Z" fill="#00C99F"/>
<path d="M3.34736 79.7853C4.95248 79.7853 6.25369 78.4841 6.25369 76.879C6.25369 75.2739 4.95248 73.9727 3.34736 73.9727C1.74225 73.9727 0.44104 75.2739 0.44104 76.879C0.44104 78.4841 1.74225 79.7853 3.34736 79.7853Z" fill="#00C99F"/>
</svg>
