<svg width="94" height="89" viewBox="0 0 94 89" fill="none" xmlns="http://www.w3.org/2000/svg">
<rect x="2.81744" y="0.602539" width="88.3652" height="88.3652" rx="44.1826" fill="#F5F5FF"/>
<path fill-rule="evenodd" clip-rule="evenodd" d="M27.9129 22.9668C26.9141 22.8343 26.027 23.6115 26.027 24.619V62.1361C26.027 63.1441 26.9149 63.9214 27.914 63.7882L43.3297 61.7322C43.8761 61.6593 44.432 61.7231 44.9477 61.9178L47.8289 63.0056C48.2594 63.1682 48.4767 63.649 48.3141 64.0796C48.1516 64.5101 47.6707 64.7274 47.2402 64.5648L44.359 63.477C44.1012 63.3797 43.8232 63.3478 43.55 63.3842L28.1343 65.4402C26.136 65.7067 24.3604 64.1521 24.3604 62.1361V24.619C24.3604 22.604 26.1345 21.0496 28.1321 21.3147L44.7637 23.5211C44.9092 23.5404 45.0566 23.5404 45.2021 23.5211L61.8338 21.3147C63.8314 21.0496 65.6055 22.604 65.6055 24.619V46.3591C65.6055 46.8193 65.2324 47.1924 64.7722 47.1924C64.3119 47.1924 63.9389 46.8193 63.9389 46.3591V24.619C63.9389 23.6115 63.0518 22.8343 62.053 22.9668L45.4213 25.1733C45.1303 25.2119 44.8355 25.2119 44.5446 25.1733L27.9129 22.9668Z" fill="#002169"/>
<path fill-rule="evenodd" clip-rule="evenodd" d="M37.376 31.1966C37.376 30.7364 37.7491 30.3633 38.2093 30.3633L46.9788 30.3633C47.439 30.3633 47.8121 30.7364 47.8121 31.1966C47.8121 31.6569 47.439 32.0299 46.9788 32.0299L38.2093 32.0299C37.7491 32.0299 37.376 31.6569 37.376 31.1966Z" fill="#002169"/>
<path fill-rule="evenodd" clip-rule="evenodd" d="M31.3652 36.848C31.3652 36.3877 31.7383 36.0146 32.1986 36.0146H44.439C44.8992 36.0146 45.2723 36.3877 45.2723 36.848C45.2723 37.3082 44.8992 37.6813 44.439 37.6813H32.1986C31.7383 37.6813 31.3652 37.3082 31.3652 36.848Z" fill="#002169"/>
<path fill-rule="evenodd" clip-rule="evenodd" d="M31.3677 42.4993C31.369 42.0391 31.7432 41.6671 32.2034 41.6684L46.0327 41.7084C46.4929 41.7098 46.8649 42.0839 46.8636 42.5442C46.8623 43.0044 46.4881 43.3764 46.0278 43.3751L32.1986 43.3351C31.7384 43.3338 31.3664 42.9596 31.3677 42.4993Z" fill="#002169"/>
<path fill-rule="evenodd" clip-rule="evenodd" d="M31.3677 55.0628C31.369 54.6026 31.7432 54.2306 32.2034 54.2319L46.0327 54.2719C46.4929 54.2732 46.8649 54.6474 46.8636 55.1077C46.8623 55.5679 46.4881 55.9399 46.0278 55.9386L32.1986 55.8986C31.7384 55.8972 31.3664 55.5231 31.3677 55.0628Z" fill="#002169"/>
<path fill-rule="evenodd" clip-rule="evenodd" d="M51.5557 31.1966C51.5557 30.7364 51.9288 30.3633 52.389 30.3633H55.7401C56.2004 30.3633 56.5735 30.7364 56.5735 31.1966C56.5735 31.6569 56.2004 32.0299 55.7401 32.0299H52.389C51.9288 32.0299 51.5557 31.6569 51.5557 31.1966Z" fill="#002169"/>
<path fill-rule="evenodd" clip-rule="evenodd" d="M51.5557 36.848C51.5557 36.3877 51.9288 36.0146 52.389 36.0146H55.7401C56.2004 36.0146 56.5735 36.3877 56.5735 36.848C56.5735 37.3082 56.2004 37.6813 55.7401 37.6813H52.389C51.9288 37.6813 51.5557 37.3082 51.5557 36.848Z" fill="#002169"/>
<path fill-rule="evenodd" clip-rule="evenodd" d="M51.5557 42.4993C51.5557 42.0391 51.9288 41.666 52.389 41.666H55.7401C56.2004 41.666 56.5735 42.0391 56.5735 42.4993C56.5735 42.9596 56.2004 43.3327 55.7401 43.3327H52.389C51.9288 43.3327 51.5557 42.9596 51.5557 42.4993Z" fill="#002169"/>
<path d="M32.5426 49.2064C32.5426 49.8025 32.0594 50.2858 31.4632 50.2858C30.8671 50.2858 30.3838 49.8025 30.3838 49.2064C30.3838 48.6102 30.8671 48.127 31.4632 48.127C32.0594 48.127 32.5426 48.6102 32.5426 49.2064Z" fill="#002169"/>
<path d="M36.404 49.2064C36.404 49.8025 35.9207 50.2858 35.3245 50.2858C34.7284 50.2858 34.2451 49.8025 34.2451 49.2064C34.2451 48.6102 34.7284 48.127 35.3245 48.127C35.9207 48.127 36.404 48.6102 36.404 49.2064Z" fill="#002169"/>
<path d="M40.4401 49.2064C40.4401 49.8025 39.9568 50.2858 39.3607 50.2858C38.7645 50.2858 38.2812 49.8025 38.2812 49.2064C38.2812 48.6102 38.7645 48.127 39.3607 48.127C39.9568 48.127 40.4401 48.6102 40.4401 49.2064Z" fill="#002169"/>
<path d="M44.3004 49.2064C44.3004 49.8025 43.8172 50.2858 43.221 50.2858C42.6249 50.2858 42.1416 49.8025 42.1416 49.2064C42.1416 48.6102 42.6249 48.127 43.221 48.127C43.8172 48.127 44.3004 48.6102 44.3004 49.2064Z" fill="#002169"/>
<path d="M48.3366 49.2064C48.3366 49.8025 47.8533 50.2858 47.2572 50.2858C46.661 50.2858 46.1777 49.8025 46.1777 49.2064C46.1777 48.6102 46.661 48.127 47.2572 48.127C47.8533 48.127 48.3366 48.6102 48.3366 49.2064Z" fill="#002169"/>
<path fill-rule="evenodd" clip-rule="evenodd" d="M58.7097 48.9606C53.7477 48.9606 49.7253 52.9831 49.7253 57.945C49.7253 62.907 53.7477 66.9294 58.7097 66.9294C63.6716 66.9294 67.6941 62.907 67.6941 57.945C67.6941 52.9831 63.6716 48.9606 58.7097 48.9606ZM48.0586 57.945C48.0586 52.0626 52.8272 47.2939 58.7097 47.2939C64.5921 47.2939 69.3607 52.0626 69.3607 57.945C69.3607 63.8274 64.5921 68.5961 58.7097 68.5961C52.8272 68.5961 48.0586 63.8274 48.0586 57.945Z" fill="#002169"/>
<path fill-rule="evenodd" clip-rule="evenodd" d="M63.7651 54.0184C64.1052 54.3286 64.1294 54.8557 63.8193 55.1957L58.0574 61.5129C57.6198 61.9926 56.8879 62.0575 56.3729 61.6623L53.5575 59.502C53.1924 59.2218 53.1235 58.6987 53.4037 58.3335C53.6839 57.9684 54.207 57.8995 54.5721 58.1797L57.0839 60.107L62.5879 54.0725C62.898 53.7325 63.4251 53.7083 63.7651 54.0184Z" fill="#002169"/>
<path d="M33.6045 29.3729L33.5627 27.4488C34.1065 27.5325 34.5666 27.7416 35.0267 28.0344L35.6959 27.1142C35.0267 26.6541 34.3156 26.4031 33.5627 26.3613V25.8594H32.8934V26.3613C32.2242 26.4031 31.6804 26.6123 31.304 26.9887C30.8857 27.3652 30.6766 27.8253 30.6766 28.4527C30.6766 29.0383 30.8439 29.4984 31.2203 29.7912C31.5968 30.084 32.1406 30.3349 32.8934 30.5022V32.4681C32.3079 32.3845 31.6804 32.0917 31.1367 31.5898L30.3838 32.4681C31.1367 33.0956 31.9732 33.472 32.8934 33.5975V34.3504H33.5627V33.5975C34.2738 33.5557 34.8175 33.3465 35.2358 32.9701C35.6541 32.5936 35.8632 32.0917 35.8632 31.5061C35.8632 30.9205 35.6959 30.4604 35.3195 30.1258C34.943 29.7912 34.3992 29.5402 33.6045 29.3729ZM32.9353 29.1638C32.5588 29.0383 32.3079 28.9128 32.1406 28.7873C32.0151 28.6618 31.9314 28.4945 31.9314 28.2436C31.9314 28.0344 32.0151 27.8253 32.1824 27.658C32.3497 27.4907 32.6007 27.407 32.8934 27.407V29.1638H32.9353ZM34.3574 32.1753C34.1483 32.3427 33.8973 32.4263 33.5627 32.4681V30.6277C33.981 30.7532 34.2319 30.8787 34.3992 31.0042C34.5666 31.1297 34.6084 31.3388 34.6084 31.5898C34.6502 31.7989 34.5247 32.008 34.3574 32.1753Z" fill="#002169"/>
<g opacity="0.5">
<path d="M25.1195 28.3096C25.119 28.451 25.0711 28.5896 24.981 28.7099C24.8909 28.8302 24.7622 28.9276 24.6092 28.9913C23.539 29.4309 22.5847 30.041 21.8012 30.7863C21.0177 31.5317 20.4205 32.3976 20.0441 33.3342L19.5523 34.6822C19.4913 34.8355 19.3732 34.9689 19.2149 35.0635C19.0567 35.1581 18.8662 35.209 18.6708 35.209C18.4754 35.209 18.285 35.1581 18.1267 35.0635C17.9684 34.9689 17.8504 34.8355 17.7894 34.6822L17.2512 33.3342C16.8747 32.3976 16.2776 31.5317 15.4941 30.7863C14.7106 30.041 13.7563 29.4309 12.6861 28.9913C12.5341 28.927 12.4065 28.8293 12.3175 28.7091C12.2284 28.5888 12.1813 28.4505 12.1813 28.3096C12.1813 28.1686 12.2284 28.0304 12.3175 27.9101C12.4065 27.7898 12.5341 27.6922 12.6861 27.6279C13.7563 27.1882 14.7106 26.5782 15.4941 25.8328C16.2776 25.0875 16.8747 24.2216 17.2512 23.285L17.7894 21.9369C17.8504 21.7837 17.9684 21.6503 18.1267 21.5557C18.285 21.4611 18.4754 21.4102 18.6708 21.4102C18.8662 21.4102 19.0567 21.4611 19.2149 21.5557C19.3732 21.6503 19.4913 21.7837 19.5523 21.9369L20.0905 23.285C20.4669 24.2216 21.0641 25.0875 21.8476 25.8328C22.6311 26.5782 23.5854 27.1882 24.6556 27.6279C24.8 27.6966 24.9192 27.7962 25.0009 27.9162C25.0825 28.0361 25.1235 28.172 25.1195 28.3096ZM90.0705 48.2241C90.07 48.3655 90.022 48.5041 89.9319 48.6244C89.8419 48.7447 89.7132 48.8421 89.5602 48.9058C88.4899 49.3454 87.5356 49.9555 86.7521 50.7008C85.9687 51.4462 85.3715 52.3121 84.995 53.2487L84.5033 54.5967C84.4422 54.75 84.3242 54.8834 84.1659 54.978C84.0076 55.0726 83.8172 55.1235 83.6218 55.1235C83.4264 55.1235 83.236 55.0726 83.0777 54.978C82.9194 54.8834 82.8013 54.75 82.7403 54.5967L82.2021 53.2487C81.8257 52.3121 81.2285 51.4462 80.4451 50.7008C79.6616 49.9555 78.7072 49.3454 77.637 48.9058C77.485 48.8415 77.3575 48.7438 77.2684 48.6236C77.1793 48.5033 77.1322 48.3651 77.1322 48.2241C77.1322 48.0831 77.1793 47.9449 77.2684 47.8246C77.3575 47.7043 77.485 47.6067 77.637 47.5424C78.7072 47.1027 79.6616 46.4927 80.4451 45.7473C81.2285 45.002 81.8257 44.1361 82.2021 43.1995L82.7403 41.8514C82.8013 41.6982 82.9194 41.5648 83.0777 41.4702C83.236 41.3756 83.4264 41.3247 83.6218 41.3247C83.8172 41.3247 84.0076 41.3756 84.1659 41.4702C84.3242 41.5648 84.4422 41.6982 84.5033 41.8514L85.0414 43.1995C85.4179 44.1361 86.015 45.002 86.7985 45.7473C87.582 46.4927 88.5363 47.1027 89.6065 47.5424C89.7509 47.6112 89.8702 47.7107 89.9518 47.8307C90.0335 47.9506 90.0744 48.0865 90.0705 48.2241Z" fill="#FFA100"/>
<path d="M6.25398 16.7603C8.1168 16.7603 9.62691 15.1989 9.62691 13.2727C9.62691 11.3466 8.1168 9.78516 6.25398 9.78516C4.39116 9.78516 2.88104 11.3466 2.88104 13.2727C2.88104 15.1989 4.39116 16.7603 6.25398 16.7603Z" fill="#FF4D69"/>
<path d="M90.6482 20.2482C92.2558 20.2482 93.559 18.947 93.559 17.3419C93.559 15.7368 92.2558 14.4355 90.6482 14.4355C89.0406 14.4355 87.7374 15.7368 87.7374 17.3419C87.7374 18.947 89.0406 20.2482 90.6482 20.2482Z" fill="#00C99F"/>
<path d="M3.34736 79.7853C4.95248 79.7853 6.25369 78.4841 6.25369 76.879C6.25369 75.2739 4.95248 73.9727 3.34736 73.9727C1.74225 73.9727 0.44104 75.2739 0.44104 76.879C0.44104 78.4841 1.74225 79.7853 3.34736 79.7853Z" fill="#00C99F"/>
</g>
</svg>
