<svg width="76" height="42" viewBox="0 0 76 42" fill="none" xmlns="http://www.w3.org/2000/svg">
<g opacity="0.5">
<path d="M30.6364 27.2137C30.636 27.3015 30.6049 27.3876 30.5463 27.4624C30.4878 27.5372 30.4041 27.5977 30.3047 27.6372C29.609 27.9104 28.9886 28.2895 28.4794 28.7526C27.9701 29.2158 27.5819 29.7538 27.3372 30.3358L27.0175 31.1735C26.9779 31.2687 26.9011 31.3516 26.7982 31.4104C26.6954 31.4691 26.5716 31.5008 26.4446 31.5008C26.3175 31.5008 26.1938 31.4691 26.0909 31.4104C25.988 31.3516 25.9112 31.2687 25.8716 31.1735L25.5217 30.3358C25.277 29.7538 24.8889 29.2158 24.3796 28.7526C23.8703 28.2895 23.25 27.9104 22.5543 27.6372C22.4555 27.5973 22.3726 27.5366 22.3147 27.4619C22.2568 27.3871 22.2262 27.3012 22.2262 27.2137C22.2262 27.1261 22.2568 27.0402 22.3147 26.9654C22.3726 26.8907 22.4555 26.83 22.5543 26.7901C23.25 26.5169 23.8703 26.1378 24.3796 25.6747C24.8889 25.2115 25.277 24.6735 25.5217 24.0915L25.8716 23.2538C25.9112 23.1586 25.988 23.0757 26.0909 23.0169C26.1938 22.9582 26.3175 22.9265 26.4446 22.9265C26.5716 22.9265 26.6954 22.9582 26.7982 23.0169C26.9011 23.0757 26.9779 23.1586 27.0175 23.2538L27.3674 24.0915C27.6121 24.6735 28.0002 25.2115 28.5095 25.6747C29.0188 26.1378 29.6391 26.5169 30.3348 26.7901C30.4287 26.8328 30.5062 26.8947 30.5593 26.9692C30.6123 27.0437 30.639 27.1282 30.6364 27.2137Z" fill="#FFA100"/>
<path d="M2.72724 32.8452C3.93812 32.8452 4.91974 31.875 4.91974 30.6781C4.91974 29.4812 3.93812 28.511 2.72724 28.511C1.51636 28.511 0.534744 29.4812 0.534744 30.6781C0.534744 31.875 1.51636 32.8452 2.72724 32.8452Z" fill="#FF4D69"/>
<path d="M14.5858 12.7903C15.6308 12.7903 16.4779 11.9818 16.4779 10.9844C16.4779 9.98701 15.6308 9.17847 14.5858 9.17847C13.5408 9.17847 12.6937 9.98701 12.6937 10.9844C12.6937 11.9818 13.5408 12.7903 14.5858 12.7903Z" fill="#00C99F"/>
</g>
<path d="M35.5665 39.5606C35.5665 39.1577 35.6378 38.7714 35.7648 38.4866C35.8917 38.2018 36.0639 38.0417 36.2434 38.0417H75.2339C75.4135 38.0417 75.5857 38.2018 75.7126 38.4866C75.8396 38.7714 75.9109 39.1577 75.9109 39.5606C75.9109 39.9634 75.8396 40.3497 75.7126 40.6345C75.5857 40.9194 75.4135 41.0794 75.2339 41.0794H36.2434C36.1545 41.0794 36.0665 41.0401 35.9844 40.9638C35.9022 40.8874 35.8276 40.7756 35.7648 40.6345C35.7019 40.4935 35.652 40.326 35.618 40.1418C35.584 39.9575 35.5665 39.76 35.5665 39.5606Z" fill="#1A1A35"/>
<path d="M66.4166 27.2295H45.1493V38.0419H66.4166V27.2295Z" fill="#FEBE3D"/>
<path d="M50.3371 27.2295H45.1493V38.0419H50.3371V27.2295Z" fill="#F8A23A"/>
<path d="M60.2611 17.0444H47.7439V27.2296H60.2611V17.0444Z" fill="#FEBE3D"/>
<path d="M50.9035 17.0444H47.7439V27.2296H50.9035V17.0444Z" fill="#F8A23A"/>
<path d="M47.7112 27.2544L50.9029 26.9507L57.376 27.3015L47.7112 27.2544Z" fill="#EC7F37"/>
<path d="M65.7832 28.1567H61.4384V29.1571H65.7832V28.1567Z" fill="white"/>
<path d="M65.853 29.6833H61.5081V30.6837H65.853V29.6833Z" fill="white"/>
<path d="M59.807 17.6304H56.7687V18.6308H59.807V17.6304Z" fill="white"/>
<path d="M59.807 18.9978H56.7687V19.9982H59.807V18.9978Z" fill="white"/>
<path d="M48.9442 6.07487C48.9442 3.23976 51.2253 0.944336 54.0396 0.944336C56.8539 0.944336 59.136 3.24128 59.136 6.07487C59.136 8.90847 54.2476 14.0952 54.2476 14.0952C54.2476 14.0952 48.9442 8.90847 48.9442 6.07487Z" fill="#F75C3D"/>
<path d="M54.0388 8.78863C55.5638 8.78863 56.8 7.5762 56.8 6.08059C56.8 4.58499 55.5638 3.37256 54.0388 3.37256C52.5139 3.37256 51.2777 4.58499 51.2777 6.08059C51.2777 7.5762 52.5139 8.78863 54.0388 8.78863Z" fill="#1A1A35"/>
</svg>
