<svg width="43" height="43" viewBox="0 0 43 43" fill="none" xmlns="http://www.w3.org/2000/svg">
<path fill-rule="evenodd" clip-rule="evenodd" d="M18.3515 0.285156L36.9529 9.82465V25.2517H33.6471V13.8141L20.0575 22.2934V42.7521L0 31.7412V11.0428L18.3515 0.285156ZM18.3594 19.4564L23.557 16.2133L10.0646 8.97484L4.9765 11.9575L18.3594 19.4564ZM3.30579 14.8107L16.7517 22.3449V37.1662L3.30579 29.7848V14.8107ZM13.4061 7.01604L26.7898 14.1962L31.9521 10.9752L18.4577 4.05479L13.4061 7.01604Z" fill="#002169"/>
<path fill-rule="evenodd" clip-rule="evenodd" d="M41.9938 29.7888C42.6237 30.4495 42.5988 31.4957 41.9382 32.1257L30.8041 42.7421L25.7789 37.7719C25.1299 37.13 25.1241 36.0834 25.766 35.4344C26.408 34.7854 27.4545 34.7796 28.1035 35.4215L30.8462 38.1342L39.6569 29.7332C40.3176 29.1032 41.3638 29.1281 41.9938 29.7888Z" fill="#F39928"/>
</svg>
