<svg width="20" height="21" viewBox="0 0 20 21" fill="none" xmlns="http://www.w3.org/2000/svg">
<path d="M11.6667 9.77612H6.66667M8.33334 13.1095H6.66667M13.3333 6.44279H6.66667M16.6667 9.35946V6.27612C16.6667 4.87599 16.6667 4.17593 16.3942 3.64115C16.1545 3.17074 15.7721 2.78829 15.3016 2.54861C14.7669 2.27612 14.0668 2.27612 12.6667 2.27612H7.33334C5.9332 2.27612 5.23314 2.27612 4.69836 2.54861C4.22795 2.78829 3.8455 3.17074 3.60582 3.64115C3.33334 4.17593 3.33334 4.87599 3.33334 6.27612V14.9428C3.33334 16.3429 3.33334 17.043 3.60582 17.5778C3.8455 18.0482 4.22795 18.4306 4.69836 18.6703C5.23314 18.9428 5.9332 18.9428 7.33334 18.9428H9.58334" stroke="#475467" stroke-width="1.3" stroke-linecap="round" stroke-linejoin="round"/>
<g clip-path="url(#clip0_2427_11809)">
<path d="M14.5833 19.0123C16.6928 19.0123 18.4028 17.3023 18.4028 15.1929C18.4028 13.0834 16.6928 11.3734 14.5833 11.3734C12.4739 11.3734 10.7639 13.0834 10.7639 15.1929C10.7639 17.3023 12.4739 19.0123 14.5833 19.0123Z" stroke="#667085" stroke-width="1.3" stroke-linecap="round" stroke-linejoin="round"/>
<path d="M14.1667 13.5261V15.4011L15.6944 16.165" stroke="#667085" stroke-width="1.3" stroke-linecap="round" stroke-linejoin="round"/>
</g>
<defs>
<clipPath id="clip0_2427_11809">
<rect width="9.16667" height="9.16667" fill="white" transform="translate(10 10.6095)"/>
</clipPath>
</defs>
</svg>
