<svg width="20" height="21" viewBox="0 0 20 21" fill="none" xmlns="http://www.w3.org/2000/svg">
<path d="M11.6666 9.66089H6.66659M8.33325 12.9942H6.66659M13.3333 6.32756H6.66659M16.6666 10.4942V6.16089C16.6666 4.76076 16.6666 4.06069 16.3941 3.52591C16.1544 3.05551 15.772 2.67306 15.3016 2.43337C14.7668 2.16089 14.0667 2.16089 12.6666 2.16089H7.33325C5.93312 2.16089 5.23306 2.16089 4.69828 2.43337C4.22787 2.67306 3.84542 3.05551 3.60574 3.52591C3.33325 4.06069 3.33325 4.76076 3.33325 6.16089V14.8276C3.33325 16.2277 3.33325 16.9278 3.60574 17.4625C3.84542 17.9329 4.22787 18.3154 4.69828 18.5551C5.23306 18.8276 5.93312 18.8276 7.33325 18.8276H9.99992M13.3333 13.8276L17.4999 17.9942M17.4999 13.8276L13.3333 17.9942" stroke="#B42318" stroke-width="1.67" stroke-linecap="round" stroke-linejoin="round"/>
</svg>
