<svg width="16" height="17" viewBox="0 0 16 17" fill="none" xmlns="http://www.w3.org/2000/svg">
<path d="M9.33329 2.00732V4.76102C9.33329 5.13439 9.33329 5.32107 9.40595 5.46368C9.46987 5.58912 9.57186 5.69111 9.6973 5.75502C9.83991 5.82768 10.0266 5.82768 10.4 5.82768H13.1537M9.33329 11.8276H5.33329M10.6666 9.16097H5.33329M13.3333 7.15312V11.961C13.3333 13.0811 13.3333 13.6411 13.1153 14.069C12.9236 14.4453 12.6176 14.7512 12.2413 14.943C11.8134 15.161 11.2534 15.161 10.1333 15.161H5.86663C4.74652 15.161 4.18647 15.161 3.75864 14.943C3.38232 14.7512 3.07636 14.4453 2.88461 14.069C2.66663 13.6411 2.66663 13.0811 2.66663 11.961V5.02764C2.66663 3.90753 2.66663 3.34748 2.88461 2.91966C3.07636 2.54333 3.38232 2.23737 3.75864 2.04562C4.18647 1.82764 4.74652 1.82764 5.86663 1.82764H8.00781C8.49699 1.82764 8.74158 1.82764 8.97176 1.8829C9.17583 1.93189 9.37092 2.0127 9.54986 2.12236C9.7517 2.24604 9.92465 2.41899 10.2706 2.7649L12.396 4.89038C12.7419 5.23628 12.9149 5.40923 13.0386 5.61107C13.1482 5.79001 13.229 5.9851 13.278 6.18917C13.3333 6.41935 13.3333 6.66394 13.3333 7.15312Z" stroke="#9CA3AF" stroke-width="1.3" stroke-linecap="round" stroke-linejoin="round"/>
</svg>
