<svg width="107" height="40" viewBox="0 0 107 40" fill="none" xmlns="http://www.w3.org/2000/svg">
<path d="M0.624039 38.2836C0.624039 37.9668 0.746088 37.663 0.963337 37.439C1.18059 37.215 1.47524 37.0891 1.78248 37.0891H68.5084C68.8157 37.0891 69.1103 37.215 69.3276 37.439C69.5448 37.663 69.6669 37.9668 69.6669 38.2836C69.6669 38.6004 69.5448 38.9042 69.3276 39.1282C69.1103 39.3522 68.8157 39.4781 68.5084 39.4781H1.78248C1.63035 39.4781 1.47971 39.4472 1.33916 39.3871C1.19861 39.3271 1.07091 39.2391 0.963337 39.1282C0.855766 39.0173 0.770436 38.8856 0.71222 38.7407C0.654003 38.5958 0.624039 38.4404 0.624039 38.2836Z" fill="#1A1A35"/>
<path d="M22.6801 21.7147V17.8808C22.6801 17.7647 22.7294 17.6533 22.817 17.5712C22.9046 17.489 23.0234 17.4429 23.1473 17.4429H23.6144V21.7147H22.6801Z" fill="#1A1A35"/>
<path d="M19.217 18.084C19.3575 18.0764 19.3495 18.1238 19.4527 18.2134C19.4925 18.2513 19.5241 18.2962 19.5457 18.3455C19.6614 18.5781 19.7077 18.8357 19.6795 19.0909C19.9434 18.8697 20.2482 18.6956 20.5789 18.5773C20.4311 18.3854 20.3517 18.1552 20.2855 17.9267C20.2656 17.848 20.2371 17.7714 20.2005 17.6981C20.184 17.6641 20.1592 17.6342 20.1279 17.6109C20.0695 17.5788 20.0001 17.5691 19.9343 17.5839C19.7555 17.6097 19.5945 17.6946 19.4399 17.7829C19.3227 17.8514 19.2082 17.9236 19.0964 17.9995C19.0573 18.0262 19.2191 18.0585 19.2157 18.1039" fill="#FBB089"/>
<path d="M19.6976 21.1318C19.6976 21.1318 17.8124 22.1598 17.3436 21.8524C17.3436 21.8524 15.9298 21.5952 15.1403 18.2423C15.117 18.1444 15.0945 18.0432 15.0724 17.9397L15.616 17.7295C15.616 17.7295 15.7111 17.8366 15.8623 18.0186C16.2742 18.5143 17.1024 19.5658 17.561 20.527C17.561 20.527 18.9998 19.256 19.8997 18.9574L19.6976 21.1318Z" fill="#E44531"/>
<path d="M19.6254 19.1902C19.6072 19.1929 19.59 19.2 19.5756 19.2108C19.5612 19.2216 19.55 19.2357 19.5432 19.2518C19.5363 19.2678 19.5341 19.2853 19.5367 19.3024C19.5393 19.3196 19.5466 19.3358 19.5579 19.3495C19.4491 19.3733 19.4054 19.494 19.382 19.5963C19.0368 21.1093 19.0801 22.6713 18.9964 24.215C18.9901 24.4425 18.9616 24.6691 18.9115 24.8918C19.2709 24.9118 19.6315 24.8969 19.9876 24.8472C20.2645 24.8074 20.5397 24.7485 20.8213 24.7636C21.0761 24.7771 21.3212 24.8524 21.5717 24.8954C21.9569 24.9611 22.3524 24.9511 22.7332 24.8659C22.8228 24.5872 22.8088 24.2858 22.7757 23.9944C22.6844 23.1634 22.4525 22.3528 22.2236 21.5457C22.1255 21.2025 22.0261 20.8569 21.8652 20.5348C21.7635 20.3408 21.651 20.1521 21.528 19.9694L20.7398 18.7522C20.7212 18.7147 20.6892 18.6844 20.6493 18.6666C20.5894 18.6483 20.5295 18.6893 20.4794 18.7263C20.1935 18.9424 19.8734 19.1154 19.5307 19.2392" fill="#F75C3D"/>
<path d="M20.6685 18.333C20.2249 18.5529 19.7979 18.8011 19.3906 19.076C19.4375 19.1417 19.4654 19.2177 19.4715 19.2966C19.4776 19.3755 19.4617 19.4545 19.4254 19.5259C19.8991 19.1521 20.4144 18.8273 20.9624 18.5572C20.8623 18.4809 20.7581 18.4096 20.6502 18.3434" fill="#38385C"/>
<path d="M25.7215 21.8008H17.4843V25.9384H25.7215V21.8008Z" fill="#FEBE3D"/>
<path d="M19.5636 21.8008H17.4843V25.9384H19.5636V21.8008Z" fill="#F8A23A"/>
<path d="M25.4233 22.0391H23.4239V22.4452H25.4233V22.0391Z" fill="white"/>
<path d="M25.4233 22.5942H23.4239V23.0004H25.4233V22.5942Z" fill="white"/>
<path d="M20.3056 18.7015L20.7175 18.5653C20.7175 18.5653 20.8564 18.4204 21.8769 19.3501C22.8974 20.2798 24.3986 22.4394 24.3986 22.4394L22.3733 25.6784L21.7104 25.2803L22.6133 22.4016C22.6133 22.4016 17.8683 17.7344 21.307 18.86" fill="#E44531"/>
<path d="M21.7177 25.258C21.5614 25.2978 21.4383 25.3775 21.3002 25.4571C21.2861 25.4639 21.2735 25.4731 21.2629 25.4842C21.2523 25.4988 21.2454 25.5154 21.2425 25.5328C21.1999 25.7035 21.1352 25.8686 21.0497 26.0245C21.225 26.0695 21.4053 26.0953 21.5869 26.1013C21.6105 26.1035 21.6343 26.1012 21.657 26.0946C21.6851 26.0824 21.7088 26.0629 21.7254 26.0384C21.7682 25.985 21.804 25.927 21.8319 25.8656C22.0375 25.8258 22.2278 25.8174 22.3721 25.6797C22.1891 25.6 22.0265 25.4356 21.854 25.3365C21.8098 25.3068 21.7634 25.2802 21.7152 25.2568" fill="#FBB089"/>
<path d="M20.7759 16.1244C20.7959 16.1203 20.8154 16.1155 20.8349 16.1102C20.8154 16.1155 20.7954 16.1199 20.7759 16.1244Z" fill="#E1C2B0"/>
<path d="M18.5209 17.1015C18.518 17.1433 18.5189 17.1852 18.5234 17.2269C18.5434 17.4299 18.6109 17.5291 18.6975 17.5673C18.7037 17.5701 18.7101 17.5725 18.7166 17.5745C18.7674 17.5898 18.8218 17.5912 18.8733 17.5785C18.8534 17.4498 18.8356 17.3264 18.8228 17.2201C18.8135 17.1437 18.8058 17.0752 18.8012 17.0182C18.7718 17.0374 18.6678 16.9263 18.6678 16.9263C18.579 16.9422 18.5345 17.0174 18.5209 17.1015Z" fill="#E88A78"/>
<path d="M19.5234 18.2859C19.5922 18.3062 19.6984 18.1462 19.7532 18.1585C19.8237 18.1744 19.8772 18.184 19.9018 18.1884H19.9073V18.1916L19.9112 18.1892H19.9158V18.186C19.9286 18.1788 19.9558 18.1629 19.9923 18.1402C20.0169 18.1251 20.0458 18.1064 20.0772 18.0857C20.1337 18.0458 20.2934 18.055 20.3592 18.0024C20.3715 18.1012 20.3401 18.141 20.4072 18.2756C20.3958 18.2887 20.3836 18.3012 20.3707 18.313C20.3307 18.3507 20.2858 18.3833 20.2369 18.4102C20.1675 18.4488 20.0915 18.4757 20.0122 18.4898C19.9439 18.5018 19.8741 18.5043 19.805 18.4974C19.7375 18.4905 19.6716 18.4738 19.6096 18.448C19.5948 18.4416 19.5965 18.4317 19.582 18.4241C19.6016 18.3329 19.6215 18.5642 19.5234 18.2859Z" fill="#E88A78"/>
<path d="M20.6891 17.6289C20.7492 17.6603 20.818 17.6741 20.8865 17.6688C20.9042 17.6665 20.9214 17.6622 20.9379 17.656C21.0229 17.623 21.0976 17.5314 21.1405 17.3419C21.1864 17.1392 21.1405 17.0572 21.0683 17.0337C21.0592 17.0422 21.0484 17.049 21.0365 17.0536C20.9965 17.0906 20.8407 17.0974 20.8156 17.1388C20.8114 17.1595 20.8063 17.1814 20.8008 17.2045C20.7986 17.2149 20.7961 17.2252 20.7935 17.236L20.7897 17.2519C20.7872 17.2626 20.7842 17.2734 20.7816 17.2849V17.2897C20.7766 17.3096 20.7715 17.3295 20.7664 17.351L20.7608 17.3721C20.7608 17.3721 20.7608 17.3721 20.7608 17.3745C20.7579 17.3853 20.7549 17.3964 20.7523 17.4072C20.7498 17.4179 20.7481 17.4239 20.7455 17.4322C20.7264 17.496 20.7086 17.5616 20.6891 17.6289Z" fill="#E88A78"/>
<path d="M19.1352 16.7182L19.6448 16.6227C19.63 16.6151 19.6145 16.6088 19.5986 16.6035C19.5291 16.5808 19.4546 16.5752 19.3821 16.5873C19.3097 16.5993 19.2418 16.6286 19.1849 16.6724C19.1667 16.686 19.15 16.7014 19.1352 16.7182Z" fill="#FFECE6"/>
<path d="M18.8012 17.0173C18.8063 17.0743 18.8135 17.1427 18.8228 17.2192C18.836 17.3267 18.8534 17.4497 18.8734 17.5775C18.8823 17.6353 18.8921 17.6942 18.9022 17.7531C18.9235 17.8769 19.0263 17.9944 19.1528 18.0955C19.2329 18.1588 19.3181 18.2162 19.4076 18.2671C19.4692 18.3026 19.5278 18.3328 19.5775 18.3571C19.6416 18.3886 19.6913 18.4101 19.7138 18.4196L19.7189 18.422H19.7232H19.7278C19.7418 18.4176 19.7703 18.4085 19.8128 18.3949C19.8404 18.3858 19.8735 18.3742 19.9092 18.3611C19.9737 18.3372 20.0493 18.3069 20.1266 18.2707C20.2237 18.2261 20.316 18.1727 20.4022 18.1115C20.5084 18.035 20.5929 17.9458 20.6231 17.8467C20.6456 17.7726 20.6655 17.699 20.6872 17.6273C20.7088 17.5556 20.7241 17.4939 20.7407 17.4318C20.7407 17.4234 20.7454 17.4151 20.7475 17.4067C20.7496 17.3984 20.7534 17.3844 20.756 17.3741C20.756 17.3741 20.756 17.3741 20.756 17.3717C20.756 17.3645 20.7598 17.3573 20.7615 17.3506C20.767 17.3295 20.7721 17.3108 20.7768 17.2893V17.2845C20.7793 17.2733 20.7823 17.2622 20.7849 17.2514L20.7887 17.2355C20.7912 17.2248 20.7938 17.2144 20.7959 17.204C20.8014 17.181 20.8065 17.1587 20.8108 17.1384C20.8096 17.1404 20.8086 17.1425 20.8078 17.1447C20.8027 17.1141 20.798 17.083 20.7934 17.0524C20.7568 16.993 20.7025 16.9054 20.6396 16.8047L20.6056 16.7506L20.5606 16.6785L20.5262 16.6235C20.5143 16.6052 20.5029 16.5865 20.491 16.5678L20.4349 16.479C20.3624 16.5324 20.2867 16.5819 20.2081 16.6271C20.1949 16.6272 20.1817 16.6283 20.1687 16.6303L20.1873 16.6391C19.8088 16.8499 19.3789 16.966 18.9388 16.9763H18.8751C18.8759 16.9795 18.8063 17.0221 18.8012 17.0173Z" fill="#FBB089"/>
<path d="M20.7286 15.1849L20.7154 15.1777C20.8219 15.2589 20.9168 15.3526 20.9978 15.4564C20.9364 15.3445 20.8432 15.2506 20.7286 15.1849ZM20.1774 16.6342C19.5968 16.7138 18.888 16.7851 18.2922 16.764L18.2977 16.7724C18.3402 16.8424 18.3975 16.9854 18.4676 17.0614C18.482 17.0777 18.4995 17.0912 18.5194 17.1012C18.5326 17.0172 18.5771 16.942 18.6659 16.9253C18.6659 16.9253 18.7704 17.0359 18.7997 17.0172C18.8022 17.02 18.8744 16.9774 18.8782 16.9774H18.942C19.3822 16.9671 19.8123 16.851 20.1909 16.6402L20.1774 16.6342ZM18.4035 15.4608L18.4124 15.4644C18.4871 15.3676 18.574 15.2795 18.671 15.202C18.564 15.2703 18.4729 15.3584 18.4035 15.4608Z" fill="#38385C"/>
<path d="M21.3079 16.4419C21.2905 16.5108 21.2731 16.5801 21.2535 16.6477C21.2421 16.6876 21.2298 16.7274 21.2166 16.7672L21.0866 17.0176L21.0735 17.0296L21.0688 17.034C21.0597 17.0425 21.0489 17.0493 21.0369 17.0539C20.997 17.0909 20.8412 17.0977 20.8161 17.1391C20.8149 17.1411 20.814 17.1432 20.8131 17.1454C20.8085 17.1148 20.8034 17.0837 20.7987 17.0531C20.7987 17.0411 20.7949 17.0292 20.7932 17.0172C20.7685 16.8614 20.7441 16.706 20.7197 16.551L20.9219 16.5163C21.0917 16.4865 21.2128 16.463 21.2697 16.4514L21.3032 16.4447V16.4419H21.3079Z" fill="#38385C"/>
<path d="M20.4398 16.4814L20.4959 16.5702L20.5311 16.626L20.5655 16.6809L20.6105 16.753L20.6445 16.8071C20.7073 16.9079 20.7613 16.9955 20.7982 17.0548C20.7982 17.0428 20.7944 17.0309 20.7927 17.0193C20.7604 16.815 20.7283 16.6108 20.6963 16.407C20.6895 16.3648 20.6831 16.323 20.6763 16.2808L20.6339 16.3206C20.5723 16.3774 20.5075 16.4311 20.4398 16.4814Z" fill="#E88A78"/>
<path d="M19.9423 15.3585C19.958 15.3585 19.9741 15.3612 19.9898 15.3632C20.0056 15.3652 20.0166 15.3664 20.0298 15.3688L20.0569 15.3732L20.0854 15.3788L20.1134 15.3851C20.1259 15.3878 20.1382 15.391 20.1504 15.3947C20.1661 15.3991 20.1822 15.4038 20.1975 15.409L20.2107 15.4134C20.2209 15.417 20.2315 15.4202 20.2417 15.4242L20.2595 15.4309L20.2723 15.4357C20.2772 15.4374 20.282 15.4394 20.2867 15.4417L20.3292 15.4604C20.3432 15.4668 20.3572 15.4735 20.3716 15.4807C20.3861 15.4879 20.3865 15.4883 20.3937 15.4922L20.4094 15.501L20.4137 15.5034L20.4226 15.5086L20.4341 15.5153C20.4816 15.5431 20.5268 15.5741 20.5695 15.6081L20.5763 15.6137C20.608 15.6387 20.6382 15.6653 20.6668 15.6933C20.671 15.6977 20.6753 15.7017 20.6791 15.706C20.6829 15.7104 20.6918 15.7192 20.6978 15.726L20.7156 15.7459C20.7228 15.7538 20.7296 15.7622 20.7364 15.7702C20.7432 15.7781 20.7445 15.7797 20.7483 15.7849C20.7522 15.7901 20.7615 15.802 20.7679 15.8108L20.7827 15.8311C20.7861 15.8358 20.7895 15.8406 20.7925 15.8454L20.7976 15.853C20.7997 15.8558 20.801 15.8585 20.8031 15.8609C20.8095 15.8709 20.8159 15.8808 20.8218 15.8912C20.8277 15.9015 20.8337 15.9115 20.8392 15.9222C20.8447 15.933 20.8503 15.943 20.8554 15.9537C20.8604 15.9645 20.8655 15.9748 20.8702 15.9856C20.8749 15.9963 20.8749 15.9963 20.877 16.0015C20.8791 15.9967 20.8808 15.9915 20.8825 15.9867L20.8859 15.9764V15.9728C20.8859 15.9692 20.8881 15.9652 20.8893 15.9617C20.8906 15.9581 20.894 15.9445 20.8961 15.9358C20.8982 15.927 20.8961 15.9294 20.8982 15.9262C20.8984 15.923 20.8984 15.9199 20.8982 15.9167L20.9008 15.9003C20.901 15.8993 20.901 15.8982 20.9008 15.8972C20.901 15.8957 20.901 15.8942 20.9008 15.8928C20.9008 15.888 20.9008 15.8836 20.9008 15.8788C20.901 15.8778 20.901 15.8767 20.9008 15.8757C20.9008 15.8685 20.9008 15.8617 20.9008 15.8546C20.9008 15.8474 20.9008 15.8426 20.9008 15.8366C20.9008 15.8307 20.9008 15.8163 20.9008 15.8064V15.8008C20.901 15.797 20.901 15.7931 20.9008 15.7893C20.901 15.7857 20.901 15.7821 20.9008 15.7785C20.9008 15.7709 20.9008 15.763 20.9008 15.7554C20.9008 15.7554 20.9008 15.7554 20.9008 15.753C20.9008 15.7451 20.8987 15.7375 20.8974 15.7295C20.8961 15.7216 20.8974 15.718 20.894 15.712L20.8902 15.6945C20.8902 15.6921 20.8902 15.6893 20.8902 15.6869C20.8894 15.6834 20.8884 15.68 20.8872 15.6766C20.8872 15.6718 20.8847 15.667 20.883 15.6622C20.8831 15.6603 20.8831 15.6583 20.883 15.6563C20.883 15.6519 20.8804 15.6471 20.8787 15.6427C20.8749 15.6312 20.8706 15.62 20.8664 15.6089L20.86 15.5934C20.8549 15.5818 20.8494 15.5707 20.8439 15.5595L20.8375 15.5476L20.826 15.5281C20.826 15.5241 20.8214 15.5205 20.8188 15.5165C20.8163 15.5125 20.8137 15.509 20.8116 15.505C20.8095 15.501 20.8014 15.4898 20.7959 15.4827L20.7849 15.4679C20.7789 15.4608 20.7734 15.4536 20.7674 15.4468L20.7488 15.4265C20.7447 15.4219 20.7403 15.4175 20.7356 15.4134C20.7295 15.4073 20.7232 15.4014 20.7165 15.3959L20.6965 15.3792L20.6829 15.3684L20.6638 15.3549L20.6507 15.3461L20.6303 15.3334L20.6095 15.3218C20.6048 15.3192 20.6 15.3168 20.595 15.3147L20.5806 15.3079L20.567 15.3019L20.5483 15.2944L20.5343 15.2888H20.5279L20.5211 15.2864L20.5075 15.282L20.4905 15.2768C20.477 15.2729 20.4629 15.2693 20.4481 15.2665L20.4281 15.2625L20.4094 15.2593H20.4031H20.4001L20.3844 15.2573H20.3648H20.3559H20.3411H20.3173H20.2918C20.2782 15.2573 20.265 15.2573 20.2493 15.2573H20.2362L20.2094 15.2605L20.1831 15.2649L20.1567 15.2701L20.1308 15.2764L20.1075 15.2832H20.1024L20.085 15.2888L20.0773 15.2916L20.0557 15.2999L20.0374 15.3079L20.0217 15.3151H20.0175L20.0022 15.3226C19.9812 15.3331 19.9612 15.3451 19.9423 15.3585Z" fill="#82635A"/>
<path d="M21.3062 16.4424V16.4453L21.2714 16.4525L21.2965 16.4453L21.3062 16.4424Z" fill="#82635A"/>
<path d="M20.6051 17.068L20.0955 16.8869C20.1899 16.8598 20.2911 16.863 20.3834 16.8958C20.4756 16.9286 20.5536 16.9891 20.6051 17.068Z" fill="#101029"/>
<path d="M19.353 16.9422L18.9156 17.0696C18.9669 17.0102 19.0358 16.9663 19.1137 16.9437C19.1915 16.921 19.2748 16.9205 19.353 16.9422Z" fill="#101029"/>
<path d="M19.1972 17.0717C19.2554 17.0545 19.3246 17.1059 19.3505 17.1859C19.3764 17.266 19.3505 17.3452 19.2936 17.3611C19.2367 17.377 19.1662 17.3273 19.1403 17.2472C19.1144 17.1672 19.1395 17.0888 19.1972 17.0717Z" fill="#101029"/>
<path d="M20.1589 17.0838C20.2192 17.0786 20.2749 17.1419 20.2829 17.2255C20.291 17.3091 20.2485 17.3808 20.1878 17.3848C20.1271 17.3888 20.0719 17.3263 20.0638 17.2431C20.0557 17.1598 20.0982 17.089 20.1589 17.0838Z" fill="#101029"/>
<path d="M19.5527 17.022C19.5773 17.135 19.6015 17.2481 19.6262 17.3612C19.6217 17.347 19.6136 17.3339 19.6027 17.3232C19.5917 17.3125 19.5782 17.3043 19.5632 17.2995C19.5483 17.2947 19.5323 17.2933 19.5166 17.2954C19.5009 17.2975 19.486 17.3031 19.4731 17.3118C19.4602 17.3204 19.4497 17.3318 19.4425 17.345C19.4352 17.3582 19.4315 17.3728 19.4315 17.3877C19.4315 17.4025 19.4353 17.4172 19.4426 17.4304C19.4498 17.4436 19.4604 17.4549 19.4733 17.4635L19.7396 17.6403" fill="#FB6562"/>
<path d="M19.4815 17.8108C19.6415 17.8518 19.8112 17.8447 19.9666 17.7903C20.122 17.7359 20.2553 17.6371 20.3475 17.5078C20.3575 17.6082 20.3328 17.7089 20.2768 17.795C20.2209 17.8811 20.1368 17.948 20.037 17.9856C19.8362 18.0573 19.5886 17.9836 19.4815 17.8108Z" fill="white"/>
<path d="M15.5743 17.7478C15.6168 17.4776 15.6592 17.2074 15.7017 16.9371C15.7132 16.8635 15.6253 16.7994 15.5467 16.8109C15.5078 16.8196 15.4723 16.8382 15.444 16.8646C15.4156 16.891 15.3956 16.9242 15.3862 16.9606C15.3681 17.0335 15.3647 17.1088 15.3764 17.1828C15.2946 17.1472 15.2071 17.1245 15.1173 17.1155C15.0724 17.1115 15.027 17.1177 14.9852 17.1336C14.9433 17.1496 14.9062 17.1748 14.877 17.2071C14.8311 17.2654 14.802 17.3338 14.7927 17.4058C14.7833 17.4777 14.794 17.5507 14.8237 17.6176C14.8534 17.6845 14.901 17.7431 14.962 17.7876C15.023 17.8321 15.0952 17.861 15.1717 17.8716C15.176 17.8967 15.1798 17.9218 15.184 17.9469C15.2981 17.856 15.4309 17.7882 15.5743 17.7478Z" fill="#FBB089"/>
<path d="M15.8613 18.0171L15.1393 18.2409C15.1159 18.1429 15.0934 18.0418 15.0714 17.9383L15.6149 17.728C15.6149 17.728 15.7101 17.8363 15.8613 18.0171Z" fill="#F75C3D"/>
<path d="M21.3083 16.3448C21.3083 16.3783 21.3083 16.4117 21.3049 16.4443L21.2951 16.4471H18.1134C18.1108 16.4133 18.1096 16.3794 18.1096 16.3448C18.1096 16.3102 18.1096 16.2652 18.1146 16.2254C18.1295 16.0473 18.1784 15.8732 18.259 15.7113C18.3017 15.6252 18.3532 15.5432 18.4128 15.4665C18.5851 15.2431 18.8197 15.0685 19.0909 14.9619C19.3621 14.8553 19.6593 14.8208 19.95 14.8622C20.2408 14.9036 20.5137 15.0193 20.7389 15.1965C20.9641 15.3738 21.1329 15.6057 21.2267 15.867C21.2386 15.9001 21.2492 15.9339 21.2586 15.9678C21.2917 16.091 21.3084 16.2177 21.3083 16.3448Z" fill="#F75C3D"/>
<path d="M21.2951 16.4454L21.2708 16.4521C21.2139 16.4637 21.0916 16.4872 20.923 16.517C20.8615 16.5278 20.7956 16.5397 20.7209 16.5517C20.5621 16.5779 20.3786 16.6066 20.1798 16.6341C19.5993 16.7137 18.8905 16.785 18.2947 16.7639C17.9974 16.7535 17.7294 16.7201 17.5184 16.6536C17.5154 16.6536 17.5184 16.6536 17.5184 16.6488C17.5043 16.4099 18.1129 16.4458 18.1129 16.4458H21.298L21.2951 16.4454Z" fill="#E44531"/>
<path d="M27.1763 25.1003V32.3611C27.1764 32.4985 27.1658 32.6357 27.1448 32.7716H6.05763C6.03662 32.6357 6.02611 32.4985 6.0262 32.3611V25.1003C6.0262 24.3419 6.34755 23.6145 6.91955 23.0783C7.49155 22.542 8.26734 22.2407 9.07627 22.2407H24.1258C24.5263 22.2407 24.923 22.3146 25.2931 22.4583C25.6632 22.602 25.9995 22.8126 26.2828 23.0781C26.566 23.3437 26.7907 23.6589 26.944 24.0059C27.0974 24.3529 27.1763 24.7247 27.1763 25.1003Z" fill="#38385C"/>
<path d="M14.0827 22.2411H14.0692V22.2407L14.0827 22.2411Z" fill="#A54545"/>
<path d="M12.1061 21.6949V21.7089H13.4685L12.1061 21.6949ZM12.1061 21.6949V21.7089H13.4685L12.1061 21.6949ZM12.1061 21.6949V21.7089H13.4685L12.1061 21.6949ZM16.3907 13.291C15.6218 13.291 14.8736 13.5242 14.2577 13.9557C13.6417 14.3871 13.1912 14.9938 12.9733 15.6851L10.9165 22.2113L13.728 22.2408H23.6137V21.8622H13.9169L11.2444 21.8351L12.1061 19.2025L13.1996 15.8611C13.6243 14.5615 14.9468 13.6713 16.4476 13.6713H23.8409V13.819H24.1684V13.2926L16.3907 13.291ZM12.1061 21.6949V21.7089H13.4685L12.1061 21.6949ZM12.1061 21.6949V21.7089H13.4685L12.1061 21.6949Z" fill="#38385C"/>
<path d="M12.1067 21.6948V21.709H13.4691L12.1067 21.6948Z" fill="#E87979"/>
<path d="M23.8418 13.8171V13.6694H16.448C14.9472 13.6694 13.6252 14.5613 13.2001 15.8593L12.1065 19.2006L11.2465 21.8349L13.9191 21.8619H23.6146V31.3883H24.1692V13.8168H23.8418V13.8171ZM14.0605 21.7146H14.0494L13.4702 21.7086H12.1065V19.7497L12.2857 19.2026L13.3568 15.9302C13.7666 14.6776 15.0411 13.8199 16.488 13.8199H23.6146V21.717H14.0592L14.0605 21.7146Z" fill="#1A1A35"/>
<path d="M13.4691 21.709H12.1067V21.6948L13.4691 21.709Z" fill="#F7BCBC"/>
<path d="M6.03098 28.25V30.664H5.9953C5.769 30.6639 5.54672 30.608 5.35082 30.5018C5.15491 30.3956 4.9923 30.2429 4.87934 30.059C4.76637 29.8752 4.70705 29.6667 4.70733 29.4545C4.70761 29.2424 4.76749 29.034 4.88094 28.8504C4.99451 28.6678 5.15717 28.5162 5.3527 28.4109C5.54822 28.3055 5.76979 28.25 5.9953 28.25H6.03098Z" fill="#FBB750"/>
<path d="M6.03098 30.1214V30.6657H5.9953C5.769 30.6656 5.54672 30.6097 5.35082 30.5035C5.15491 30.3972 4.9923 30.2445 4.87934 30.0607C4.76637 29.8769 4.70705 29.6684 4.70733 29.4562C4.70761 29.244 4.76749 29.0357 4.88094 28.8521C4.93748 28.7606 5.00674 28.6765 5.08691 28.6021C5.20718 29.1948 5.54036 29.731 6.03098 30.1214Z" fill="#FDEC88"/>
<path d="M5.80991 30.6519C5.60168 30.6233 5.40409 30.5473 5.23443 30.4306C5.06476 30.3138 4.92819 30.1599 4.83664 29.9822C4.74509 29.8045 4.70136 29.6085 4.70926 29.4113C4.71716 29.2142 4.77647 29.0218 4.88198 28.8511C4.87561 29.5363 5.23659 30.2235 5.80991 30.6519Z" fill="#FDFDFC"/>
<path d="M6.06047 28.1992C6.61595 28.9354 6.5841 30.014 5.98657 30.7204C5.98063 29.9006 5.97298 29.0807 6.06047 28.1992Z" fill="#1A1A35"/>
<path d="M53.5619 10.6113H24.1696V31.3884H53.5619V10.6113Z" fill="#38385C"/>
<path d="M20.839 31.4675H9.57214C9.88356 30.2875 10.6075 29.2392 11.6286 28.4899C12.6496 27.7406 13.9089 27.3335 15.2056 27.3335C16.5022 27.3335 17.7615 27.7406 18.7825 28.4899C19.8036 29.2392 20.5276 30.2875 20.839 31.4675Z" fill="#1A1A35"/>
<path d="M50.5129 31.4675H38.9101C38.9101 29.184 41.5075 27.333 44.7113 27.333C47.9151 27.333 50.5129 29.184 50.5129 31.4675Z" fill="#1A1A35"/>
<path d="M55.2299 32.0803C55.2298 32.2637 55.152 32.4395 55.0137 32.5692C54.8754 32.6989 54.6879 32.7718 54.4922 32.7719H5.18654C4.9909 32.7719 4.80327 32.699 4.66493 32.5693C4.52659 32.4396 4.44887 32.2637 4.44887 32.0803C4.44887 31.8968 4.52659 31.7209 4.66493 31.5912C4.80327 31.4615 4.9909 31.3887 5.18654 31.3887H54.4922C54.5891 31.3887 54.685 31.4066 54.7745 31.4413C54.864 31.4761 54.9453 31.527 55.0138 31.5912C55.0823 31.6555 55.1367 31.7317 55.1738 31.8156C55.2108 31.8995 55.2299 31.9895 55.2299 32.0803Z" fill="#1A1A35"/>
<path d="M15.2054 37.2551C17.9944 37.2551 20.2553 35.2479 20.2553 32.7718C20.2553 30.2958 17.9944 28.2886 15.2054 28.2886C12.4164 28.2886 10.1555 30.2958 10.1555 32.7718C10.1555 35.2479 12.4164 37.2551 15.2054 37.2551Z" fill="#FEBE3D"/>
<path d="M15.206 36.2283C17.3561 36.2283 19.0991 34.6808 19.0991 32.7718C19.0991 30.8629 17.3561 29.3154 15.206 29.3154C13.0559 29.3154 11.3129 30.8629 11.3129 32.7718C11.3129 34.6808 13.0559 36.2283 15.206 36.2283Z" fill="#38385C"/>
<path d="M15.206 35.6536C16.9984 35.6536 18.4515 34.3635 18.4515 32.7721C18.4515 31.1807 16.9984 29.8906 15.206 29.8906C13.4136 29.8906 11.9606 31.1807 11.9606 32.7721C11.9606 34.3635 13.4136 35.6536 15.206 35.6536Z" fill="#FEBE3D"/>
<path d="M44.7119 37.2551C47.5009 37.2551 49.7618 35.2479 49.7618 32.7718C49.7618 30.2958 47.5009 28.2886 44.7119 28.2886C41.9229 28.2886 39.662 30.2958 39.662 32.7718C39.662 35.2479 41.9229 37.2551 44.7119 37.2551Z" fill="#FEBE3D"/>
<path d="M44.7115 36.2283C46.8616 36.2283 48.6046 34.6808 48.6046 32.7718C48.6046 30.8629 46.8616 29.3154 44.7115 29.3154C42.5614 29.3154 40.8185 30.8629 40.8185 32.7718C40.8185 34.6808 42.5614 36.2283 44.7115 36.2283Z" fill="#38385C"/>
<path d="M44.7116 35.6536C46.504 35.6536 47.957 34.3635 47.957 32.7721C47.957 31.1807 46.504 29.8906 44.7116 29.8906C42.9192 29.8906 41.4661 31.1807 41.4661 32.7721C41.4661 34.3635 42.9192 35.6536 44.7116 35.6536Z" fill="#FEBE3D"/>
<path d="M12.5607 19.7495H12.1067V23.1542H12.5607V19.7495Z" fill="#F8A23A"/>
<path d="M12.1067 21.6948H10.9176V22.2112H12.1067V21.6948Z" fill="#F8A23A"/>
<path d="M13.9834 21.8624V18.9049C13.9834 18.7729 14.0393 18.6463 14.1388 18.553C14.2384 18.4597 14.3734 18.4072 14.5142 18.4072V21.8624H13.9834Z" fill="#1A1A35"/>
<path d="M36.3965 23.5726C36.3965 23.477 36.437 23.3852 36.5091 23.3176C36.5813 23.2499 36.6792 23.2119 36.7812 23.2119H51.4752C51.5773 23.2119 51.6752 23.2499 51.7473 23.3176C51.8195 23.3852 51.86 23.477 51.86 23.5726C51.86 23.6683 51.8195 23.7601 51.7473 23.8277C51.6752 23.8954 51.5773 23.9334 51.4752 23.9334H36.7812C36.6792 23.9334 36.5813 23.8954 36.5091 23.8277C36.437 23.7601 36.3965 23.6683 36.3965 23.5726Z" fill="#FEBE3D"/>
<path d="M25.0997 11.806C25.0997 11.7104 25.1403 11.6186 25.2124 11.551C25.2846 11.4833 25.3824 11.4453 25.4845 11.4453H52.4047C52.5068 11.4453 52.6046 11.4833 52.6768 11.551C52.7489 11.6186 52.7895 11.7104 52.7895 11.806C52.7895 11.9017 52.7489 11.9935 52.6768 12.0611C52.6046 12.1288 52.5068 12.1668 52.4047 12.1668H25.4845C25.3824 12.1668 25.2846 12.1288 25.2124 12.0611C25.1403 11.9935 25.0997 11.9017 25.0997 11.806Z" fill="#FEBE3D"/>
<path d="M42.0469 24.8866C42.0469 24.7909 42.0874 24.6992 42.1596 24.6315C42.2317 24.5639 42.3296 24.5259 42.4316 24.5259H51.3878C51.4898 24.5259 51.5877 24.5639 51.6598 24.6315C51.732 24.6992 51.7725 24.7909 51.7725 24.8866C51.7725 24.9823 51.732 25.074 51.6598 25.1417C51.5877 25.2093 51.4898 25.2473 51.3878 25.2473H42.4316C42.3296 25.2473 42.2317 25.2093 42.1596 25.1417C42.0874 25.074 42.0469 24.9823 42.0469 24.8866Z" fill="#FEBE3D"/>
<path d="M44.7224 26.2006C44.7224 26.1049 44.7629 26.0132 44.8351 25.9455C44.9073 25.8779 45.0051 25.8398 45.1072 25.8398H51.4727C51.5748 25.8398 51.6727 25.8779 51.7448 25.9455C51.817 26.0132 51.8575 26.1049 51.8575 26.2006C51.8575 26.2962 51.817 26.388 51.7448 26.4557C51.6727 26.5233 51.5748 26.5613 51.4727 26.5613H45.1072C45.0051 26.5613 44.9073 26.5233 44.8351 26.4557C44.7629 26.388 44.7224 26.2962 44.7224 26.2006Z" fill="#FEBE3D"/>
<path d="M43.9648 5.57567H39.4521V5.60752C38.8187 5.60062 38.1828 5.60898 37.5444 5.63261V5.57567H32.6036C32.5108 5.37681 32.4696 5.16015 32.4833 4.94345C32.497 4.72676 32.5653 4.5162 32.6826 4.32904C33.0398 3.77918 33.7443 3.49291 34.4272 3.44592C35.1101 3.39894 35.7926 3.55502 36.4585 3.7099C35.9382 2.93787 36.0525 1.83856 36.7231 1.17762C37.3936 0.516672 38.5564 0.349049 39.4062 0.795384C40.256 1.24172 40.7134 2.25822 40.4607 3.14053C41.2973 2.59705 42.5251 2.66275 43.2916 3.29064C43.9635 3.84289 44.2242 4.78015 43.9648 5.57567Z" fill="#FEBE3D"/>
<path d="M39.48 4.75049H37.5723V7.5583H39.48V4.75049Z" fill="#38385C"/>
<path d="M38.5411 2.72705L36.895 4.8994H40.1871L38.5411 2.72705Z" fill="#38385C"/>
<path d="M6.06344 8.77989V6.09192C6.06344 5.55084 6.2927 5.03191 6.7008 4.64931C7.10889 4.2667 7.66238 4.05176 8.23951 4.05176H20.7897C21.3669 4.05176 21.9204 4.2667 22.3285 4.64931C22.7366 5.03191 22.9658 5.55084 22.9658 6.09192V8.77989C22.9658 9.32097 22.7366 9.8399 22.3285 10.2225C21.9204 10.6051 21.3669 10.82 20.7897 10.82H8.23994C7.95412 10.8202 7.67108 10.7675 7.40699 10.665C7.14291 10.5625 6.90295 10.4122 6.70082 10.2228C6.4987 10.0333 6.33837 9.80835 6.22901 9.56078C6.11964 9.3132 6.06338 9.04785 6.06344 8.77989Z" fill="#FEBE3D"/>
<path d="M8.74003 6.24756L9.04283 7.16571H10.0221L9.22969 7.73348L9.53249 8.65164L8.74003 8.08426L7.94757 8.65164L8.25037 7.73348L7.45791 7.16571H8.43723L8.74003 6.24756Z" fill="#38385C"/>
<path d="M11.624 6.24756L11.9263 7.16571H12.9061L12.1136 7.73348L12.416 8.65164L11.624 8.08426L10.8315 8.65164L11.1343 7.73348L10.3419 7.16571H11.3212L11.624 6.24756Z" fill="#38385C"/>
<path d="M14.5089 6.22021L14.8117 7.13837H15.7911L14.9986 7.70614L15.3014 8.62429L14.5089 8.05692L13.7165 8.62429L14.0193 7.70614L13.2268 7.13837H14.2061L14.5089 6.22021Z" fill="#38385C"/>
<path d="M17.4133 6.22021L17.7161 7.13837H18.6954L17.903 7.70614L18.2058 8.62429L17.4133 8.05692L16.6213 8.62429L16.9237 7.70614L16.1312 7.13837H17.1109L17.4133 6.22021Z" fill="#38385C"/>
<path d="M20.2901 6.22021L20.5929 7.13837H21.5722L20.7798 7.70614L21.0826 8.62429L20.2901 8.05692L19.4976 8.62429L19.8004 7.70614L19.008 7.13837H19.9873L20.2901 6.22021Z" fill="#38385C"/>
<path d="M22.9138 8.86133L22.7159 15.1347L20.3228 10.8334L22.9138 8.86133Z" fill="#FEBE3D"/>
<g opacity="0.5">
<path d="M81.9344 25.8983C81.9925 25.9726 82.0235 26.0582 82.0239 26.1455C82.0264 26.2304 81.9999 26.3144 81.9472 26.3884C81.8945 26.4625 81.8175 26.524 81.7242 26.5664C81.0329 26.8379 80.4165 27.2146 79.9105 27.6748C79.4044 28.135 79.0187 28.6696 78.7755 29.2479L78.4279 30.0803C78.3885 30.1749 78.3123 30.2573 78.21 30.3157C78.1078 30.3741 77.9848 30.4055 77.8586 30.4055C77.7324 30.4055 77.6094 30.3741 77.5071 30.3157C77.4049 30.2573 77.3286 30.1749 77.2892 30.0803L76.9416 29.2479C76.6984 28.6696 76.3127 28.135 75.8067 27.6748C75.3006 27.2146 74.6842 26.8379 73.9929 26.5664C73.8948 26.5267 73.8124 26.4664 73.7549 26.3922C73.6973 26.3179 73.6669 26.2326 73.6669 26.1455C73.6669 26.0585 73.6973 25.9731 73.7549 25.8989C73.8124 25.8246 73.8948 25.7643 73.9929 25.7246C74.6842 25.4531 75.3006 25.0765 75.8067 24.6163C76.3127 24.1561 76.6984 23.6214 76.9416 23.0431L77.2892 22.2108C77.3286 22.1162 77.4049 22.0338 77.5071 21.9754C77.6094 21.917 77.7324 21.8855 77.8586 21.8855C77.9848 21.8855 78.1078 21.917 78.21 21.9754C78.3123 22.0338 78.3885 22.1162 78.4279 22.2108L78.7456 23.0431C78.9887 23.6214 79.3744 24.1561 79.8805 24.6163C80.3865 25.0765 81.003 25.4531 81.6942 25.7246C81.7931 25.7639 81.8762 25.824 81.9344 25.8983Z" fill="#FFA100"/>
<path d="M92.4332 8.25304C93.6364 8.25304 94.6118 9.21714 94.6118 10.4064C94.6118 11.5957 93.6364 12.5598 92.4332 12.5598C91.23 12.5598 90.2546 11.5957 90.2546 10.4064C90.2546 9.21714 91.23 8.25304 92.4332 8.25304Z" fill="#FF4D69"/>
<path d="M104.216 28.1813C105.254 28.1813 106.096 28.9847 106.096 29.9758C106.096 30.9668 105.254 31.7703 104.216 31.7703C103.178 31.7703 102.336 30.9668 102.336 29.9758C102.336 28.9847 103.178 28.1813 104.216 28.1813Z" fill="#00C99F"/>
</g>
</svg>
