<svg width="22" height="23" viewBox="0 0 22 23" fill="none" xmlns="http://www.w3.org/2000/svg">
<path d="M4 13.7092C2.14864 14.5259 1 15.664 1 16.9229C1 19.4081 5.47715 21.4229 11 21.4229C16.5228 21.4229 21 19.4081 21 16.9229C21 15.664 19.8514 14.5259 18 13.7092M17 7.42285C17 11.4866 12.5 13.4229 11 16.4229C9.5 13.4229 5 11.4866 5 7.42285C5 4.10914 7.68629 1.42285 11 1.42285C14.3137 1.42285 17 4.10914 17 7.42285ZM12 7.42285C12 7.97514 11.5523 8.42285 11 8.42285C10.4477 8.42285 10 7.97514 10 7.42285C10 6.87057 10.4477 6.42285 11 6.42285C11.5523 6.42285 12 6.87057 12 7.42285Z" stroke="#4B5563" stroke-width="2" stroke-linecap="round" stroke-linejoin="round"/>
</svg>
