<svg width="126" height="87" viewBox="0 0 126 87" fill="none" xmlns="http://www.w3.org/2000/svg">
<ellipse cx="60.1961" cy="44.9855" rx="36.075" ry="36.0877" fill="#F5F5FF"/>
<ellipse cx="60.283" cy="45.2588" rx="30.907" ry="30.907" fill="#F5F5FF"/>
<path d="M73.0183 44.3088V45.5594C73.0166 48.4907 72.0674 51.3429 70.3123 53.6907C68.5571 56.0385 66.0901 57.756 63.2791 58.5871C60.4681 59.4182 57.4637 59.3184 54.7141 58.3026C51.9644 57.2867 49.6168 55.4093 48.0214 52.9502C46.4259 50.4911 45.6681 47.5822 45.861 44.6572C46.0539 41.7323 47.1871 38.948 49.0916 36.7197C50.9961 34.4914 53.5699 32.9385 56.4292 32.2925C59.2884 31.6465 62.2799 31.942 64.9574 33.1351M73.0182 34.6769L59.4249 48.2839L55.3469 44.2059" stroke="#4B4EFC" stroke-width="3" stroke-linecap="round" stroke-linejoin="round"/>
<g opacity="0.5">
<path d="M60.8105 5.97382L72.6175 12.9875" stroke="#5EBF87" stroke-width="3.40789" stroke-linecap="round"/>
<path d="M114.572 58.8546L124 48.8688" stroke="white" stroke-width="3.40789" stroke-linecap="round"/>
<path d="M89.8462 84.1239L99.2739 74.1381" stroke="#E6427A" stroke-width="3.40789" stroke-linecap="round"/>
<path d="M15.8594 53.8616L25.2871 43.8759" stroke="#E6427A" stroke-width="3.40789" stroke-linecap="round"/>
<path d="M27.1733 85.2614L36.601 75.2756" stroke="white" stroke-width="3.40789" stroke-linecap="round"/>
<ellipse cx="43.5874" cy="2.26874" rx="2.21828" ry="2.21906" fill="white"/>
<ellipse cx="29.3916" cy="19.0272" rx="2.21828" ry="2.21906" fill="#F39928"/>
<ellipse cx="16.4141" cy="64.9572" rx="2.21828" ry="2.21906" fill="#F39928"/>
<ellipse cx="2.21828" cy="70.2834" rx="2.21828" ry="2.21906" fill="white"/>
<path d="M54.3041 81.1761C54.3041 82.0882 53.5651 82.8272 52.6538 82.8272C51.7426 82.8272 51.0035 82.0882 51.0035 81.1761C51.0035 80.2641 51.7426 79.5251 52.6538 79.5251C53.5651 79.5251 54.3041 80.2641 54.3041 81.1761Z" fill="#5EBF87" stroke="#5EBF87" stroke-width="1.13596"/>
<ellipse cx="81.5175" cy="65.1386" rx="2.77285" ry="2.77383" fill="#F39928"/>
<path d="M108.297 59.9644C108.297 61.1829 107.31 62.1703 106.092 62.1703C104.875 62.1703 103.887 61.1829 103.887 59.9644C103.887 58.746 104.875 57.7586 106.092 57.7586C107.31 57.7586 108.297 58.746 108.297 59.9644Z" fill="#5EBF87" stroke="#5EBF87" stroke-width="1.13596"/>
<ellipse cx="99.0438" cy="21.1307" rx="2.77285" ry="2.77383" fill="white"/>
<ellipse cx="100.938" cy="45.5402" rx="1.66371" ry="1.6643" fill="black"/>
<ellipse cx="15.8595" cy="27.8769" rx="1.66371" ry="1.6643" fill="#1A1E5E"/>
</g>
</svg>
