<svg width="43" height="43" viewBox="0 0 43 43" fill="none" xmlns="http://www.w3.org/2000/svg">
<path fill-rule="evenodd" clip-rule="evenodd" d="M21.4993 0.28418C9.91702 0.28418 0.499268 9.70195 0.499268 21.2842C0.499268 32.8665 9.91702 42.2843 21.4993 42.2843C33.0815 42.2843 42.4993 32.8665 42.4993 21.2842C42.4993 9.70195 33.0815 0.28418 21.4993 0.28418ZM2.85823 21.2842C2.85823 11.0019 11.217 2.64314 21.4993 2.64314C31.7815 2.64314 40.1403 11.0019 40.1403 21.2842C40.1403 31.5665 31.7815 39.9253 21.4993 39.9253C11.217 39.9253 2.85823 31.5665 2.85823 21.2842ZM21.4987 3.69043C21.1856 3.69043 20.8812 3.79724 20.6536 4.02481C20.4261 4.25238 20.3193 4.55681 20.3193 4.86991V7.01172C13.3952 7.63249 7.84743 13.1802 7.22666 20.1043H5.08486C4.77176 20.1043 4.46733 20.2111 4.23976 20.4387C4.01219 20.6663 3.90538 20.9707 3.90538 21.2838C3.90538 21.5969 4.01219 21.9013 4.23976 22.1289C4.46733 22.3565 4.77176 22.4633 5.08486 22.4633H7.22225C7.78725 29.3923 13.3405 34.9377 20.3193 35.5563V37.6977C20.3193 38.0108 20.4261 38.3153 20.6536 38.5428C20.8812 38.7704 21.1856 38.8772 21.4987 38.8772C21.8118 38.8772 22.1163 38.7704 22.3438 38.5428C22.5714 38.3153 22.6782 38.0108 22.6782 37.6977V35.5603C29.6072 34.9953 35.1526 29.4421 35.7712 22.4633H37.9126C38.2257 22.4633 38.5301 22.3565 38.7577 22.1289C38.9853 21.9013 39.0921 21.5969 39.0921 21.2838C39.0921 20.5671 38.4946 20.1043 37.9126 20.1043H35.7708C35.15 13.1802 29.6023 7.63249 22.6782 7.01172V4.86991C22.6782 4.55681 22.5714 4.25238 22.3438 4.02481C22.1163 3.79724 21.8118 3.69043 21.4987 3.69043ZM12.8892 20.1043H9.65145C10.2039 14.4814 14.6964 9.98895 20.3193 9.43651V11.4355C20.3193 11.7486 20.4261 12.053 20.6536 12.2806C20.8812 12.5081 21.1856 12.615 21.4987 12.615C21.8118 12.615 22.1163 12.5081 22.3438 12.2806C22.5714 12.053 22.6782 11.7486 22.6782 11.4355V9.43651C28.3011 9.98895 32.7936 14.4814 33.346 20.1043H30.1083C29.7952 20.1043 29.4907 20.2111 29.2632 20.4387C29.0356 20.6663 28.9288 20.9707 28.9288 21.2838C28.9288 21.5969 29.0356 21.9013 29.2632 22.1289C29.4907 22.3565 29.7952 22.4633 30.1083 22.4633H33.346C32.7936 28.0862 28.3011 32.5787 22.6782 33.1311V31.1322C22.6782 30.8191 22.5714 30.5146 22.3438 30.2871C22.1163 30.0595 21.8118 29.9527 21.4987 29.9527C21.1856 29.9527 20.8812 30.0595 20.6536 30.2871C20.4261 30.5146 20.3193 30.8191 20.3193 31.1322V33.1311C14.6964 32.5787 10.2039 28.0862 9.65145 22.4633H12.8892C13.2023 22.4633 13.5067 22.3565 13.7343 22.1289C13.9619 21.9013 14.0687 21.5969 14.0687 21.2838C14.0687 20.9707 13.9619 20.6663 13.7343 20.4387C13.5067 20.2111 13.2023 20.1043 12.8892 20.1043Z" fill="#002169"/>
<path d="M22.2125 20.2009L22.1506 17.3517C22.9558 17.4756 23.6372 17.7853 24.3185 18.2189L25.3095 16.8562C24.3185 16.1749 23.2655 15.8033 22.1506 15.7413V14.998H21.1596V15.7413C20.1686 15.8033 19.3634 16.113 18.8059 16.6704C18.1865 17.2279 17.8768 17.9092 17.8768 18.8383C17.8768 19.7054 18.1246 20.3868 18.682 20.8203C19.2395 21.2539 20.0447 21.6255 21.1596 21.8733V24.7844C20.2924 24.6606 19.3634 24.227 18.5581 23.4837L17.4432 24.7844C18.5581 25.7135 19.7969 26.271 21.1596 26.4568V27.5717H22.1506V26.4568C23.2036 26.3949 24.0088 26.0852 24.6282 25.5277C25.2476 24.9703 25.5573 24.227 25.5573 23.3598C25.5573 22.4927 25.3095 21.8114 24.7521 21.3159C24.1946 20.8203 23.3894 20.4487 22.2125 20.2009ZM21.2215 19.8912C20.6641 19.7054 20.2924 19.5196 20.0447 19.3338C19.8589 19.148 19.735 18.9002 19.735 18.5286C19.735 18.2189 19.8589 17.9092 20.1066 17.6614C20.3544 17.4137 20.726 17.2898 21.1596 17.2898V19.8912H21.2215ZM23.3275 24.3509C23.0178 24.5986 22.6461 24.7225 22.1506 24.7844V22.0591C22.77 22.2449 23.1416 22.4308 23.3894 22.6166C23.6372 22.8024 23.6991 23.1121 23.6991 23.4837C23.761 23.7934 23.5752 24.1031 23.3275 24.3509Z" fill="#F39928"/>
</svg>
