<svg width="42" height="43" viewBox="0 0 42 43" fill="none" xmlns="http://www.w3.org/2000/svg">
<path fill-rule="evenodd" clip-rule="evenodd" d="M20.9974 2.27771C10.4999 2.27771 1.98998 10.7877 1.98998 21.2853C1.98998 31.7829 10.4999 40.2929 20.9974 40.2929C31.495 40.2929 40.0049 31.7829 40.0049 21.2853C40.0049 10.7877 31.495 2.27771 20.9974 2.27771ZM-0.00256348 21.2853C-0.00256348 9.68724 9.39946 0.285156 20.9974 0.285156C32.5954 0.285156 41.9974 9.68724 41.9974 21.2853C41.9974 32.8834 32.5954 42.2854 20.9974 42.2854C9.39946 42.2854 -0.00256348 32.8834 -0.00256348 21.2853Z" fill="#002169"/>
<path fill-rule="evenodd" clip-rule="evenodd" d="M19.1613 7.3808C19.7103 7.03071 20.3479 6.84473 20.999 6.84473C21.6501 6.84473 22.2877 7.03071 22.8367 7.3808C23.3772 7.72543 23.8096 8.21495 24.085 8.79329C24.2965 9.18212 24.6455 9.47849 25.064 9.62413L25.1005 9.63683L25.2571 9.70534C25.6928 9.88594 26.1786 9.90599 26.6278 9.76178L26.6343 9.75968C27.23 9.57293 27.8656 9.55295 28.4719 9.70185C29.0782 9.85075 29.6321 10.1629 30.0736 10.6043C30.5151 11.0458 30.8272 11.5998 30.9761 12.2061C31.125 12.8124 31.105 13.4479 30.9182 14.0437L30.9162 14.0502C30.7712 14.5017 30.7922 14.9901 30.9753 15.4275L30.9826 15.4448L31.0403 15.5987L31.0428 15.6058C31.1938 16.0276 31.4941 16.3791 31.8866 16.594C32.4638 16.8701 32.9521 17.3027 33.2957 17.843C33.6448 18.3919 33.83 19.0291 33.8296 19.6797L33.8296 19.6887L33.8294 19.6978C33.8172 20.3455 33.6212 20.9765 33.2641 21.5171C32.914 22.0472 32.4232 22.469 31.8471 22.7356C31.4589 22.9476 31.1614 23.2944 31.0109 23.7109C31.0106 23.7117 31.0103 23.7125 31.01 23.7133L30.9541 23.872L30.943 23.8983C30.7599 24.3357 30.7389 24.8241 30.8839 25.2755L30.886 25.2821C31.0727 25.8778 31.0927 26.5133 30.9438 27.1196C30.7949 27.726 30.4828 28.2799 30.0413 28.7214C29.5998 29.1629 29.0459 29.475 28.4396 29.6239C27.8333 29.7728 27.1978 29.7528 26.602 29.566L26.594 29.5635L26.5861 29.5609C26.1413 29.4132 25.6581 29.4314 25.2258 29.6119L25.0702 29.68L25.0357 29.6921C24.6152 29.8405 24.2651 30.1397 24.0532 30.5315C23.7778 31.1102 23.3452 31.6001 22.8044 31.9449C22.2554 32.295 21.6178 32.481 20.9667 32.481C20.3156 32.481 19.678 32.295 19.129 31.9449C18.5882 31.6001 18.1555 31.1101 17.8801 30.5313C17.6687 30.1402 17.3202 29.8406 16.9012 29.6905L16.8793 29.6827L16.7132 29.6143C16.2794 29.4315 15.7941 29.4126 15.3473 29.5609L15.3394 29.5635L15.3314 29.566C14.7356 29.7528 14.1001 29.7728 13.4938 29.6239C12.8875 29.475 12.3336 29.1629 11.8921 28.7214C11.4506 28.2799 11.1385 27.726 10.9896 27.1196C10.8407 26.5133 10.8607 25.8778 11.0475 25.2821L11.0506 25.2721L11.0539 25.2622C11.1988 24.8319 11.1915 24.3652 11.0338 23.9401C11.0028 23.8735 10.9754 23.8052 10.952 23.7355C10.8001 23.3207 10.502 22.9758 10.1139 22.7653C9.5353 22.4899 9.04559 22.0574 8.70087 21.5168C8.35078 20.9677 8.16479 20.3301 8.16479 19.679C8.16479 19.0279 8.35078 18.3903 8.70087 17.8413C9.04521 17.3013 9.53422 16.869 10.1119 16.5936C10.5031 16.3793 10.8027 16.0292 10.9539 15.6091C10.9792 15.5371 11.0087 15.4667 11.0424 15.3983C11.2114 14.9688 11.226 14.4935 11.083 14.0538L11.0797 14.0437C10.893 13.4479 10.873 12.8124 11.0219 12.2061C11.1708 11.5998 11.4829 11.0458 11.9244 10.6043C12.3658 10.1629 12.9198 9.85075 13.5261 9.70185C14.1324 9.55295 14.7679 9.57296 15.3637 9.7597L15.3702 9.76175C15.8217 9.9067 16.3101 9.88573 16.7475 9.7026L16.7529 9.70032L16.913 9.6344L16.9364 9.62612C17.3537 9.47806 17.7014 9.18121 17.9132 8.79285C18.1886 8.2147 18.621 7.72534 19.1613 7.3808ZM20.999 8.83728C20.7274 8.83728 20.4615 8.91485 20.2326 9.06085C20.0036 9.20686 19.8211 9.41522 19.7065 9.66144L19.6956 9.68496L19.6835 9.70787C19.2432 10.5381 18.5104 11.1748 17.6277 11.495L17.5141 11.5418C16.6409 11.9066 15.6664 11.9485 14.7651 11.6602C14.5174 11.5831 14.2533 11.575 14.0013 11.6369C13.7485 11.699 13.5174 11.8292 13.3333 12.0133C13.1492 12.1974 13.019 12.4284 12.9569 12.6813C12.8952 12.9328 12.9031 13.1963 12.9798 13.4436C13.2711 14.344 13.2323 15.3189 12.8702 16.1934L12.8514 16.2388L12.8319 16.2752L12.8313 16.2771C12.511 17.1721 11.8686 17.9157 11.0296 18.3626L11.0059 18.3752L10.9815 18.3866C10.7353 18.5011 10.5269 18.6836 10.3809 18.9126C10.2349 19.1415 10.1573 19.4075 10.1573 19.679C10.1573 19.9506 10.2349 20.2165 10.3809 20.4454C10.5269 20.6744 10.7353 20.8569 10.9815 20.9715L11.0042 20.982L11.0264 20.9937C11.8659 21.437 12.5095 22.1781 12.8307 23.0715L12.8357 23.0855L12.8401 23.0989L12.8607 23.1398L12.8777 23.1833C13.2157 24.0486 13.2399 25.0049 12.9463 25.8861C12.8707 26.1322 12.8632 26.3943 12.9246 26.6444C12.9867 26.8973 13.1169 27.1283 13.301 27.3124C13.4851 27.4966 13.7162 27.6267 13.969 27.6888C14.2197 27.7504 14.4824 27.7427 14.729 27.6667C15.6301 27.3701 16.6081 27.4089 17.4829 27.7763L17.5967 27.8232C18.4808 28.1465 19.2136 28.7869 19.6525 29.6204L19.6639 29.6421L19.6743 29.6643C19.7888 29.9105 19.9713 30.1189 20.2003 30.2649C20.4292 30.4109 20.6951 30.4884 20.9667 30.4884C21.2383 30.4884 21.5042 30.4109 21.7331 30.2649C21.9621 30.1189 22.1446 29.9105 22.2591 29.6643L22.2695 29.642L22.281 29.6201C22.7198 28.7875 23.4525 28.1483 24.3359 27.8263L24.4404 27.7806L24.4467 27.7779C25.3224 27.4091 26.302 27.3696 27.2044 27.6667C27.451 27.7427 27.7137 27.7504 27.9644 27.6888C28.2172 27.6267 28.4483 27.4966 28.6324 27.3124C28.8165 27.1283 28.9467 26.8973 29.0088 26.6444C29.0706 26.3925 29.0626 26.1285 28.9855 25.8808C28.6999 24.9881 28.7383 24.0237 29.0934 23.1569L29.135 23.0392C29.4562 22.1458 30.0998 21.4047 30.9393 20.9614L30.9673 20.9467L30.9962 20.9337C31.2427 20.823 31.4526 20.6445 31.6015 20.419C31.7487 20.196 31.8303 19.9362 31.837 19.6693C31.8355 19.4011 31.7584 19.1387 31.6144 18.9123C31.4688 18.6834 31.2608 18.5007 31.015 18.3859L30.9914 18.3748L30.9684 18.3626C30.1318 17.917 29.4907 17.1764 29.1695 16.2847L29.1297 16.1784C28.7709 15.3092 28.7311 14.3409 29.0178 13.4449C29.0949 13.1972 29.1029 12.9332 29.041 12.6813C28.9789 12.4284 28.8488 12.1974 28.6647 12.0133C28.4805 11.8292 28.2495 11.699 27.9967 11.6369C27.7447 11.575 27.4806 11.5831 27.2329 11.6602C26.3306 11.9489 25.3549 11.9065 24.481 11.5405L24.4737 11.5375L24.3699 11.4921C23.4869 11.1739 22.7536 10.5377 22.3141 9.70712L22.3022 9.68457L22.2914 9.66144C22.1769 9.41522 21.9944 9.20686 21.7654 9.06085C21.5365 8.91485 21.2705 8.83728 20.999 8.83728Z" fill="#002169"/>
<path fill-rule="evenodd" clip-rule="evenodd" d="M25.9487 16.1326C26.3377 16.5217 26.3377 17.1525 25.9487 17.5416L20.2656 23.2247C19.8769 23.6133 19.2469 23.6138 18.8577 23.2257L16.0484 20.4245C15.6588 20.036 15.6579 19.4052 16.0464 19.0156C16.4349 18.6259 17.0657 18.625 17.4553 19.0135L19.5601 21.1123L24.5397 16.1326C24.9288 15.7436 25.5596 15.7436 25.9487 16.1326Z" fill="#F39928"/>
<path fill-rule="evenodd" clip-rule="evenodd" d="M10.0623 32.3743L12.3871 28.0312L14.1438 28.9716L12.4753 32.0886L14.3928 31.6919C14.6659 31.6341 14.9503 31.6629 15.2063 31.7742C15.4631 31.8858 15.6785 32.0749 15.8225 32.3149L16.2528 33.0274L17.9212 29.7088L19.7014 30.6038L17.4874 35.0075L17.4764 35.0273C17.3596 35.2354 17.1895 35.4086 16.9836 35.5292C16.7777 35.6497 16.5434 35.7133 16.3048 35.7133C16.0662 35.7133 15.8319 35.6497 15.626 35.5292C15.4261 35.4121 15.26 35.2455 15.1437 35.0455L14.3524 33.735L11.5234 34.3203C11.2749 34.3723 11.0168 34.3528 10.7789 34.2641C10.5401 34.1751 10.3316 34.02 10.1776 33.8169C10.0237 33.6139 9.93067 33.3712 9.90945 33.1172C9.88823 32.8633 9.93968 32.6085 10.0578 32.3827L10.0623 32.3743ZM29.1769 32.0969L27.5712 29.0921L29.3286 28.153L31.593 32.3908C31.7112 32.6166 31.7626 32.8714 31.7414 33.1253C31.7202 33.3792 31.6271 33.6219 31.4732 33.825C31.3192 34.0281 31.1107 34.1832 30.8719 34.2722C30.6341 34.3609 30.376 34.3804 30.1275 34.3284C30.1266 34.3282 30.1256 34.328 30.1247 34.3278L27.2984 33.743L26.5071 35.0536C26.3908 35.2536 26.2247 35.4202 26.0248 35.5372C25.819 35.6578 25.5847 35.7213 25.346 35.7213C25.1074 35.7213 24.8731 35.6578 24.6672 35.5372C24.4613 35.4166 24.2912 35.2434 24.1745 35.0353L24.164 35.0167L22.112 30.9613L23.8899 30.0617L25.3962 33.0386L25.8265 32.326C25.8271 32.325 25.8276 32.324 25.8282 32.323C25.9723 32.083 26.1877 31.8939 26.4445 31.7823C26.7005 31.6709 26.9849 31.6422 27.258 31.6999L29.1769 32.0969ZM30.537 32.3784L30.5327 32.3774C30.5341 32.3777 30.5355 32.378 30.537 32.3784Z" fill="#002169"/>
</svg>
