<svg width="100" height="93" viewBox="0 0 100 93" fill="none" xmlns="http://www.w3.org/2000/svg">
<path d="M9.85449 19.6199L26.6252 1.85645" stroke="#5EBF87" stroke-width="2.31993" stroke-linecap="round"/>
<path d="M73.3638 91.6111L90.1345 73.8477" stroke="#E6427A" stroke-width="2.31993" stroke-linecap="round"/>
<ellipse cx="3.94605" cy="81.9445" rx="3.94605" ry="3.94744" fill="#A79F88"/>
<ellipse cx="95.0678" cy="46.8103" rx="4.93256" ry="4.93429" fill="#5EBF87"/>
<ellipse cx="48.5965" cy="48.8284" rx="29.1981" ry="29.2083" fill="#003CBE" fill-opacity="0.05"/>
<path fill-rule="evenodd" clip-rule="evenodd" d="M58.7349 38.1144L43.3677 52.945L39.2899 48.5881C38.5387 47.8798 37.3582 47.8369 36.4997 48.4379C35.6627 49.0603 35.4266 50.1549 35.9417 51.0348L40.7708 58.8901C41.2429 59.6198 42.0585 60.0706 42.9814 60.0706C43.8614 60.0706 44.6984 59.6198 45.1706 58.8901C45.9432 57.8814 60.688 40.3036 60.688 40.3036C62.6196 38.329 60.2802 36.5906 58.7349 38.0929V38.1144Z" fill="#002169"/>
</svg>
