<svg width="100" height="92" viewBox="0 0 100 92" fill="none" xmlns="http://www.w3.org/2000/svg">
<path d="M10.5566 19.3257L27.034 1.87305" stroke="#5EBF87" stroke-width="2.31993" stroke-linecap="round"/>
<path d="M72.9551 90.0582L89.4324 72.6055" stroke="#E6427A" stroke-width="2.31993" stroke-linecap="round"/>
<ellipse cx="4.75153" cy="80.56" rx="3.87702" ry="3.87838" fill="#A79F88"/>
<ellipse cx="94.2789" cy="46.0413" rx="4.84627" ry="4.84797" fill="#5EBF87"/>
<ellipse cx="49.9231" cy="49.3262" rx="29.9895" ry="30" fill="#003CBE" fill-opacity="0.05"/>
<path d="M62.7662 36.2109H37.0799C36.0891 36.2109 35.2451 36.9997 35.2451 38.0269V53.9856C35.2451 54.9816 36.0836 55.8015 37.0799 55.8015H62.7662C63.7841 55.8015 64.601 54.9637 64.601 53.9856V38.0269C64.601 36.9765 63.7344 36.2109 62.7662 36.2109ZM36.4683 38.1299L45.1337 45.2114L36.4683 53.7029V38.1299ZM50.2957 47.2442C50.0843 47.4159 49.7648 47.4159 49.5557 47.2454L37.55 37.4341H62.2996L50.2957 47.2442ZM46.0869 45.9904L48.7823 48.1932C49.4467 48.7335 50.4077 48.7292 51.0692 48.192L53.7629 45.9906L62.5266 54.5784H37.3231L46.0869 45.9904ZM54.7161 45.2116L63.3778 38.1328V53.6995L54.7161 45.2116ZM39.9849 60.1112V58.0723C39.9849 57.7345 39.7113 57.4607 39.3733 57.4607C39.0353 57.4607 38.7617 57.7345 38.7617 58.0723V60.1112C38.7617 60.449 39.0353 60.7228 39.3733 60.7228C39.7113 60.7228 39.9849 60.449 39.9849 60.1112ZM45.2597 61.3222V58.0723C45.2597 57.7345 44.9862 57.4607 44.6482 57.4607C44.3101 57.4607 44.0366 57.7345 44.0366 58.0723V61.3222C44.0366 61.6599 44.3101 61.9337 44.6482 61.9337C44.9862 61.9337 45.2597 61.6599 45.2597 61.3222ZM50.5346 62.5334V58.0723C50.5346 57.7345 50.2611 57.4607 49.923 57.4607C49.585 57.4607 49.3115 57.7345 49.3115 58.0723V62.5334C49.3115 62.8711 49.585 63.145 49.923 63.145C50.2611 63.145 50.5346 62.8711 50.5346 62.5334ZM55.8095 63.7443V58.0723C55.8095 57.7345 55.536 57.4607 55.1979 57.4607C54.8599 57.4607 54.5863 57.7345 54.5863 58.0723V63.7443C54.5863 64.082 54.8599 64.3559 55.1979 64.3559C55.536 64.3559 55.8095 64.082 55.8095 63.7443ZM60.4728 57.4607C60.1348 57.4607 59.8612 57.7345 59.8612 58.0723V64.9552C59.8612 65.293 60.1348 65.5668 60.4728 65.5668C60.8108 65.5668 61.0844 65.293 61.0844 64.9552V58.0723C61.0844 57.7345 60.8109 57.4607 60.4728 57.4607Z" fill="#002169"/>
</svg>
