<svg width="43" height="43" viewBox="0 0 43 43" fill="none" xmlns="http://www.w3.org/2000/svg">
<path fill-rule="evenodd" clip-rule="evenodd" d="M21.4996 2.2777C11.0021 2.2777 2.49217 10.7876 2.49217 21.2851C2.49217 31.7827 11.0021 40.2926 21.4996 40.2926C31.9972 40.2926 40.5071 31.7827 40.5071 21.2851C40.5071 10.7876 31.9972 2.2777 21.4996 2.2777ZM0.499634 21.2851C0.499634 9.68717 9.90165 0.285156 21.4996 0.285156C33.0976 0.285156 42.4996 9.68717 42.4996 21.2851C42.4996 32.8831 33.0976 42.2851 21.4996 42.2851C9.90165 42.2851 0.499634 32.8831 0.499634 21.2851Z" fill="#002169"/>
<path d="M25.3743 25.1075L24.8136 25.4114C23.8676 25.9293 22.6691 25.7538 21.9029 24.9876L17.3827 20.4675C16.6165 19.7013 16.441 18.5028 16.959 17.5525L17.2629 16.9961C17.6053 16.3626 17.7295 15.652 17.6267 14.9414C17.5297 14.2323 17.2017 13.5749 16.6936 13.0709C16.0686 12.446 15.2382 12.1035 14.3522 12.1035C13.4661 12.1035 12.6314 12.446 12.0065 13.0709L11.7882 13.2935C10.6325 14.4492 10.4998 16.4396 11.4115 18.9051C12.2719 21.2594 14.0055 23.8105 16.2827 26.0877C19.7541 29.5592 23.6193 31.5581 26.3931 31.5581C27.4889 31.5581 28.4177 31.2456 29.0769 30.5865L29.2995 30.3639C29.6077 30.056 29.8522 29.6903 30.0189 29.2878C30.1857 28.8853 30.2714 28.4539 30.2712 28.0182C30.2652 27.1408 29.9165 26.3006 29.2995 25.6768C28.2679 24.6452 26.6542 24.4141 25.3743 25.1075Z" fill="#002169"/>
<path d="M20.764 19.2867C20.764 19.5264 20.9567 19.7147 21.1921 19.7147C21.6801 19.7147 22.0739 20.1128 22.0739 20.5965C22.0739 20.8319 22.2665 21.0245 22.5019 21.0245C22.7373 21.0245 22.9299 20.8319 22.9299 20.5965C22.9299 19.6377 22.1509 18.8586 21.1921 18.8586C20.9567 18.8586 20.764 19.0512 20.764 19.2867ZM27.7326 21.0245C27.9723 21.0245 28.1606 20.8319 28.1606 20.5965C28.1606 16.7527 25.0359 13.6279 21.1921 13.6279C20.9567 13.6279 20.764 13.8205 20.764 14.056C20.764 14.2914 20.9567 14.484 21.1921 14.484C24.5651 14.484 27.3046 17.2278 27.3046 20.5965C27.3046 20.8319 27.4972 21.0245 27.7326 21.0245Z" fill="#F39928"/>
<path d="M25.1173 21.0237C24.8818 21.0237 24.6892 20.831 24.6892 20.5956C24.6892 18.6694 23.1226 17.0985 21.1921 17.0985C20.9567 17.0985 20.764 16.9102 20.764 16.6705C20.764 16.435 20.9567 16.2424 21.1921 16.2424C23.5934 16.2424 25.5453 18.1943 25.5453 20.5956C25.5453 20.831 25.3527 21.0237 25.1173 21.0237Z" fill="#F39928"/>
<path d="M20.764 11.4398C20.764 11.2043 20.9567 11.0117 21.1921 11.0117C26.4784 11.0117 30.7803 15.3093 30.7803 20.5956C30.7803 20.831 30.5877 21.0237 30.3522 21.0237C30.1125 21.0237 29.9242 20.831 29.9242 20.5956C29.9242 15.7844 26.0076 11.8678 21.1921 11.8678C20.9567 11.8678 20.764 11.6752 20.764 11.4398Z" fill="#F39928"/>
</svg>
