<svg width="117" height="22" viewBox="0 0 117 22" fill="none" xmlns="http://www.w3.org/2000/svg">
<g clip-path="url(#clip0_1997_31723)">
<path d="M4.48325 15.0792V21.2671H0.920067V2.5127H8.45212C13.1102 2.5127 15.3879 4.63888 15.3879 8.8277C15.3879 12.3909 12.9831 15.0792 8.57432 15.0792H4.48325ZM4.48325 5.54311V12.1367H8.16863C10.7934 12.1367 11.8882 11.1054 11.8882 8.85702C11.8882 6.60865 10.9107 5.54311 8.13931 5.54311H4.48325Z" fill="white"/>
<path d="M16.5719 21.267V6.57439H19.7587V10.9734L20.0422 11.0027C20.8878 7.43952 22.2612 6.4082 24.3874 6.4082H24.9202V10.1913H24.1088C21.0149 10.1913 19.92 11.2862 19.92 14.2873V21.267H16.5719Z" fill="white"/>
<path d="M26.1042 4.07697V1.35938H29.7603V4.07697H26.1042ZM26.2313 21.2673V6.57463H29.6088V21.2624H26.2313V21.2673Z" fill="white"/>
<path d="M34.312 21.2672H30.9443V6.5746H34.224V10.4506H34.5075C35.3188 7.733 37.1957 6.19824 39.6641 6.19824C42.7287 6.19824 44.195 8.26088 44.195 11.4477V21.2624H40.8518V12.3275C40.8518 10.5484 40.0697 9.23355 38.0413 9.23355C35.7783 9.23355 34.312 10.7292 34.312 12.9531V21.2624V21.2672Z" fill="white"/>
<path d="M47.4417 8.8896H45.379V6.16711H47.4417V2.19824H50.8191V6.16711H55.1301V8.88471H50.8191V15.9182C50.8191 17.3552 51.3519 18.1079 52.8182 18.1079C53.5421 18.0924 54.2592 17.9654 54.9444 17.7316L55.3501 20.7327C54.286 21.1061 53.1637 21.2865 52.0362 21.2654C48.8151 21.2654 47.4417 19.1393 47.4417 16.3777V8.8896Z" fill="white"/>
<path d="M63.8804 8.76959C61.4756 8.76959 59.9702 10.2995 59.9702 13.5205C59.9702 16.4874 61.3437 18.3007 63.9684 18.3007C66.3439 18.3007 67.1552 16.8344 67.5951 15.0504L70.6891 15.7982C70.0977 19.2196 68.0301 21.2676 64.0026 21.2676C59.3788 21.2676 56.5341 18.5793 56.5341 13.6427C56.5341 8.70605 59.4423 5.82227 63.9391 5.82227C68.1572 5.82227 70.0635 7.82136 70.6598 11.321L67.4974 11.8929C67.0575 10.0209 66.1826 8.76959 63.8804 8.76959Z" fill="white"/>
<path d="M71.8731 21.267V6.57439H75.0599V10.9734L75.3434 11.0027C76.189 7.43952 77.5625 6.4082 79.6886 6.4082H80.2214V10.1913H79.41C76.3161 10.1913 75.2212 11.2862 75.2212 14.2873V21.267H71.8731Z" fill="white"/>
<path d="M91.2445 17.455H90.9024C90.1497 19.8305 88.4585 21.2675 85.8728 21.2675C83.2872 21.2675 81.4054 20.0162 81.4054 17.1422C81.4054 14.5175 82.9988 12.6113 86.7184 12.6113H91.093V11.6337C91.093 9.72747 90.3109 8.63261 88.2483 8.63261C86.5278 8.63261 85.5307 9.50752 85.1543 11.228L81.9675 10.5095C82.5296 7.72837 84.6265 5.94434 88.3754 5.94434C92.6278 5.94434 94.4362 7.94343 94.4362 11.5995V20.9498H91.2494V17.455H91.2445ZM91.0881 15.4217V14.8156H87.2756C85.5894 14.8156 84.6167 15.4413 84.6167 16.6583C84.6167 17.719 85.2717 18.6134 87.1779 18.6134C89.5289 18.6428 91.0881 17.2595 91.0881 15.4217Z" fill="white"/>
<path d="M101.442 6.57964H105.474V9.29723H101.442V21.2674H98.0641V9.30212H95.6202V6.57964H98.0641V5.76827C98.0641 2.80139 99.6869 0.768075 103.094 0.768075C103.934 0.760295 104.773 0.843876 105.596 1.01735L105.469 3.40258C104.879 3.30688 104.283 3.2546 103.685 3.24618C102.155 3.24618 101.437 4.09176 101.437 5.80737V6.57964H101.442Z" fill="white"/>
<path d="M108.843 8.8896H106.78V6.16711H108.843V2.19824H112.22V6.16711H116.531V8.88471H112.22V15.9182C112.22 17.3552 112.753 18.1079 114.219 18.1079C114.943 18.0924 115.66 17.9654 116.346 17.7316L116.751 20.7327C115.687 21.1061 114.565 21.2865 113.437 21.2654C110.216 21.2654 108.843 19.1393 108.843 16.3777V8.8896Z" fill="white"/>
</g>
<defs>
<clipPath id="clip0_1997_31723">
<rect width="115.831" height="20.4998" fill="white" transform="translate(0.920067 0.767578)"/>
</clipPath>
</defs>
</svg>
