<svg width="176" height="32" viewBox="0 0 176 32" fill="none" xmlns="http://www.w3.org/2000/svg">
<g clip-path="url(#clip0_2194_1359)">
<path d="M5.28543 22.0134V31.1922H0V3.37305H11.1726C18.0821 3.37305 21.4607 6.52691 21.4607 12.7404C21.4607 18.0258 17.8936 22.0134 11.3539 22.0134H5.28543ZM5.28543 7.8682V17.6488H10.7521C14.6455 17.6488 16.2696 16.119 16.2696 12.7839C16.2696 9.44875 14.8195 7.8682 10.7086 7.8682H5.28543Z" fill="#002169"/>
<path d="M23.7808 31.1931V9.39885H28.508V15.9241L28.9285 15.9676C30.1828 10.6821 32.2201 9.15234 35.374 9.15234H36.1642V14.764H34.9607C30.3713 14.764 28.7472 16.3881 28.7472 20.8397V31.1931H23.7808Z" fill="#002169"/>
<path d="M38.4263 5.69325V1.66211H43.8495V5.69325H38.4263ZM38.6148 31.1924V9.39812H43.6247V31.1851H38.6148V31.1924Z" fill="#002169"/>
<path d="M53.0138 31.1924H48.0184V9.39811H52.8833V15.1476H53.3038C54.5074 11.1164 57.2915 8.83984 60.9528 8.83984C65.4987 8.83984 67.6738 11.8994 67.6738 16.6266V31.1851H62.7146V17.9316C62.7146 15.2926 61.5546 13.3422 58.5458 13.3422C55.1889 13.3422 53.0138 15.5608 53.0138 18.8597V31.1851V31.1924Z" fill="#002169"/>
<path d="M72.865 13.4354H69.8054V9.39697H72.865V3.50977H77.8749V9.39697H84.2696V13.4281H77.8749V23.8612C77.8749 25.9928 78.6652 27.1093 80.8403 27.1093C81.914 27.0862 82.9777 26.8979 83.9941 26.5511L84.5959 31.0027C83.0174 31.5566 81.3528 31.8243 79.6802 31.793C74.9023 31.793 72.865 28.6391 72.865 24.5427V13.4354Z" fill="#002169"/>
<path d="M96.5153 13.2469C92.9482 13.2469 90.7151 15.5162 90.7151 20.2941C90.7151 24.695 92.7524 27.3849 96.6458 27.3849C100.169 27.3849 101.373 25.2098 102.025 22.5635L106.615 23.6728C105.738 28.7479 102.671 31.7858 96.6966 31.7858C89.8378 31.7858 85.6182 27.7981 85.6182 20.4754C85.6182 13.1526 89.9321 8.875 96.6023 8.875C102.859 8.875 105.687 11.8404 106.571 17.0315L101.88 17.8798C101.228 15.103 99.9302 13.2469 96.5153 13.2469Z" fill="#002169"/>
<path d="M109.732 31.1931V9.39885H114.46V15.9241L114.88 15.9676C116.134 10.6821 118.172 9.15234 121.326 9.15234H122.116V14.764H120.912C116.323 14.764 114.699 16.3881 114.699 20.8397V31.1931H109.732Z" fill="#002169"/>
<path d="M138.001 26.0001H137.494C136.377 29.5237 133.869 31.6553 130.033 31.6553C126.198 31.6553 123.406 29.7992 123.406 25.5361C123.406 21.6427 125.77 18.8151 131.287 18.8151H137.776V17.3651C137.776 14.5375 136.616 12.9134 133.557 12.9134C131.005 12.9134 129.526 14.2112 128.967 16.7633L124.24 15.6975C125.074 11.5721 128.184 8.92578 133.745 8.92578C140.053 8.92578 142.736 11.8911 142.736 17.3143V31.184H138.008V26.0001H138.001ZM137.769 22.984V22.085H132.114C129.613 22.085 128.17 23.013 128.17 24.8183C128.17 26.3916 129.141 27.7184 131.969 27.7184C135.456 27.7619 137.769 25.7101 137.769 22.984Z" fill="#002169"/>
<path d="M153.444 9.39862H159.426V13.4298H153.444V31.1856H148.434V13.437H144.809V9.39862H148.434V8.19508C148.434 3.79418 150.841 0.778081 155.895 0.778081C157.142 0.76654 158.387 0.89052 159.607 1.14784L159.418 4.68596C158.543 4.544 157.659 4.46646 156.772 4.45396C154.503 4.45396 153.437 5.70825 153.437 8.25308V9.39862H153.444Z" fill="#002169"/>
<path d="M163.899 13.4354H160.839V9.39697H163.899V3.50977H168.909V9.39697H175.304V13.4281H168.909V23.8612C168.909 25.9928 169.699 27.1093 171.874 27.1093C172.948 27.0862 174.012 26.8979 175.028 26.5511L175.63 31.0027C174.052 31.5566 172.387 31.8243 170.714 31.793C165.936 31.793 163.899 28.6391 163.899 24.5427V13.4354Z" fill="#002169"/>
</g>
<defs>
<clipPath id="clip0_2194_1359">
<rect width="175.63" height="31.0166" fill="white" transform="translate(0 0.777344)"/>
</clipPath>
</defs>
</svg>
