<svg width="16" height="12" viewBox="0 0 16 12" fill="none" xmlns="http://www.w3.org/2000/svg">
<g clipPath="url(#clip0_2194_1336)">
<mask id="mask0_2194_1336" style="mask-type:alpha" maskUnits="userSpaceOnUse" x="0" y="0" width="16" height="12">
<path d="M14.375 0.660156H1.625C0.796573 0.660156 0.125 1.33173 0.125 2.16016V10.4102C0.125 11.2386 0.796573 11.9102 1.625 11.9102H14.375C15.2034 11.9102 15.875 11.2386 15.875 10.4102V2.16016C15.875 1.33173 15.2034 0.660156 14.375 0.660156Z" fill="white"/>
</mask>
<g mask="url(#mask0_2194_1336)">
<path d="M14.375 0.660156H1.625C0.796573 0.660156 0.125 1.33173 0.125 2.16016V10.4102C0.125 11.2386 0.796573 11.9102 1.625 11.9102H14.375C15.2034 11.9102 15.875 11.2386 15.875 10.4102V2.16016C15.875 1.33173 15.2034 0.660156 14.375 0.660156Z" fill="white"/>
<path fill-rule="evenodd" clip-rule="evenodd" d="M0.125 0.660156H6.875V5.91016H0.125V0.660156Z" fill="#444379"/>
<path fill-rule="evenodd" clip-rule="evenodd" d="M0.875 1.41016V2.16016H1.625V1.41016H0.875ZM2.375 1.41016V2.16016H3.125V1.41016H2.375ZM3.875 1.41016V2.16016H4.625V1.41016H3.875ZM5.375 1.41016V2.16016H6.125V1.41016H5.375ZM4.625 2.16016V2.91016H5.375V2.16016H4.625ZM3.125 2.16016V2.91016H3.875V2.16016H3.125ZM1.625 2.16016V2.91016H2.375V2.16016H1.625ZM0.875 2.91016V3.66016H1.625V2.91016H0.875ZM2.375 2.91016V3.66016H3.125V2.91016H2.375ZM3.875 2.91016V3.66016H4.625V2.91016H3.875ZM5.375 2.91016V3.66016H6.125V2.91016H5.375ZM0.875 4.41016V5.16016H1.625V4.41016H0.875ZM2.375 4.41016V5.16016H3.125V4.41016H2.375ZM3.875 4.41016V5.16016H4.625V4.41016H3.875ZM5.375 4.41016V5.16016H6.125V4.41016H5.375ZM4.625 3.66016V4.41016H5.375V3.66016H4.625ZM3.125 3.66016V4.41016H3.875V3.66016H3.125ZM1.625 3.66016V4.41016H2.375V3.66016H1.625Z" fill="#A7B6E7"/>
<path fill-rule="evenodd" clip-rule="evenodd" d="M6.875 0.660156V1.41016H15.875V0.660156H6.875ZM6.875 2.16016V2.91016H15.875V2.16016H6.875ZM6.875 3.66016V4.41016H15.875V3.66016H6.875ZM6.875 5.16016V5.91016H15.875V5.16016H6.875ZM0.125 6.66016V7.41016H15.875V6.66016H0.125ZM0.125 8.16016V8.91016H15.875V8.16016H0.125ZM0.125 9.66016V10.4102H15.875V9.66016H0.125ZM0.125 11.1602V11.9102H15.875V11.1602H0.125Z" fill="#ED4C49"/>
<path d="M14.375 1.03516H1.625C1.00368 1.03516 0.5 1.53884 0.5 2.16016V10.4102C0.5 11.0315 1.00368 11.5352 1.625 11.5352H14.375C14.9963 11.5352 15.5 11.0315 15.5 10.4102V2.16016C15.5 1.53884 14.9963 1.03516 14.375 1.03516Z" stroke="black" stroke-opacity="0.1" stroke-width="0.75"/>
</g>
</g>
<defs>
<clipPath id="clip0_2194_1336">
<rect width="15.75" height="11.25" fill="white" transform="translate(0.125 0.660156)"/>
</clipPath>
</defs>
</svg>
