<svg width="36" height="25" viewBox="0 0 36 25" fill="none" xmlns="http://www.w3.org/2000/svg">
<rect x="0.945557" y="0.828125" width="34.6887" height="23.5734" rx="3.85431" fill="white"/>
<path d="M19.8226 19.9813C23.6854 19.9998 27.2113 16.8306 27.2113 12.9752C27.2113 8.75946 23.6854 5.84511 19.8226 5.84668H16.498C12.5891 5.84511 9.37134 8.76024 9.37134 12.9752C9.37134 16.8314 12.5891 19.9998 16.498 19.9813H19.8226Z" fill="#0079BE"/>
<path d="M16.5139 6.43164C12.9416 6.43282 10.0473 9.32829 10.0461 12.902C10.0473 16.4753 12.9416 19.3707 16.5139 19.3719C20.0865 19.3707 22.982 16.4753 22.9824 12.902C22.982 9.32829 20.0869 6.43282 16.5139 6.43164ZM12.4144 12.902C12.4137 12.0757 12.6645 11.2684 13.134 10.5857C13.6035 9.90289 14.27 9.37637 15.0463 9.07493V16.7286C14.27 16.4274 13.6034 15.901 13.1338 15.2183C12.6643 14.5355 12.4135 13.7282 12.4144 12.902ZM17.981 16.7302V9.07454C18.7579 9.37555 19.4249 9.90202 19.8948 10.585C20.3647 11.268 20.6156 12.0757 20.6145 12.9024C20.6154 13.729 20.3645 14.5366 19.8946 15.2196C19.4248 15.9026 18.7578 16.4291 17.981 16.7302Z" fill="white"/>
<path d="M19.8226 19.9813C23.6854 19.9998 27.2113 16.8306 27.2113 12.9752C27.2113 8.75946 23.6854 5.84511 19.8226 5.84668H16.498C12.5891 5.84511 9.37134 8.76024 9.37134 12.9752C9.37134 16.8314 12.5891 19.9998 16.498 19.9813H19.8226Z" fill="#0079BE"/>
<path d="M16.5139 6.43164C12.9416 6.43282 10.0473 9.32829 10.0461 12.902C10.0473 16.4753 12.9416 19.3707 16.5139 19.3719C20.0865 19.3707 22.982 16.4753 22.9824 12.902C22.982 9.32829 20.0869 6.43282 16.5139 6.43164ZM12.4144 12.902C12.4137 12.0757 12.6645 11.2684 13.134 10.5857C13.6035 9.90289 14.27 9.37637 15.0463 9.07493V16.7286C14.27 16.4274 13.6034 15.901 13.1338 15.2183C12.6643 14.5355 12.4135 13.7282 12.4144 12.902ZM17.981 16.7302V9.07454C18.7579 9.37555 19.4249 9.90202 19.8948 10.585C20.3647 11.268 20.6156 12.0757 20.6145 12.9024C20.6154 13.729 20.3645 14.5366 19.8946 15.2196C19.4248 15.9026 18.7578 16.4291 17.981 16.7302Z" fill="white"/>
</svg>
