<svg width="35" height="25" viewBox="0 0 35 25" fill="none" xmlns="http://www.w3.org/2000/svg">
<rect x="0.181641" y="0.828125" width="34.3818" height="23.5734" rx="3.85431" fill="white"/>
<path d="M15.1625 24.4017L34.5637 18.7539V20.5474C34.5637 22.6761 32.838 24.4017 30.7094 24.4017H15.1625Z" fill="#FD6020"/>
<path fill-rule="evenodd" clip-rule="evenodd" d="M29.8356 10.2681C30.9029 10.2681 31.49 10.743 31.49 11.6401C31.5433 12.3262 31.063 12.9067 30.4226 13.0122L31.8635 14.9648H30.7428L29.5153 13.065H29.4086V14.9648H28.5013V10.2681H29.8356ZM29.4088 12.4317H29.6756C30.2627 12.4317 30.5295 12.1678 30.5295 11.6928C30.5295 11.2706 30.2627 11.0067 29.6756 11.0067H29.4088V12.4317ZM25.3537 14.9648H27.9153V14.1732H26.2609V12.9067H27.862V12.1151H26.2609V11.0597H27.9153V10.2681H25.3537V14.9648ZM22.6837 13.4344L21.4562 10.2681H20.4956L22.4702 15.0703H22.9505L24.9251 10.2681H23.9645L22.6837 13.4344ZM11.851 12.6429C11.851 13.9622 12.9183 15.0704 14.2525 15.0704C14.6795 15.0704 15.053 14.9649 15.4266 14.8066V13.7511C15.1598 14.0678 14.7862 14.2789 14.3593 14.2789C13.5054 14.2789 12.8116 13.6456 12.8116 12.8012V12.6957C12.7582 11.8514 13.452 11.1125 14.3059 11.0598C14.7328 11.0598 15.1598 11.2709 15.4266 11.5875V10.5321C15.1064 10.321 14.6795 10.2682 14.3059 10.2682C12.9183 10.1627 11.851 11.2709 11.851 12.6429ZM10.1967 12.0623C9.66304 11.8512 9.50294 11.7457 9.50294 11.4818C9.5563 11.1652 9.82315 10.9013 10.1434 10.9541C10.4102 10.9541 10.677 11.1124 10.8905 11.3235L11.3708 10.6902C10.9972 10.3736 10.5169 10.1625 10.0366 10.1625C9.28946 10.1097 8.64904 10.6902 8.59568 11.429V11.4818C8.59568 12.1151 8.86252 12.4845 9.71641 12.7483C9.92988 12.8011 10.1434 12.9067 10.3568 13.0122C10.5169 13.1177 10.6237 13.2761 10.6237 13.4871C10.6237 13.8565 10.3035 14.1732 9.98325 14.1732H9.92988C9.50294 14.1732 9.12936 13.9093 8.96925 13.5399L8.3822 14.1204C8.70241 14.7009 9.34283 15.0175 9.98325 15.0175C10.8371 15.0703 11.5309 14.437 11.5843 13.5927V13.4344C11.5309 12.8011 11.2641 12.4845 10.1967 12.0623ZM7.10095 14.9648H8.00821V10.2681H7.10095V14.9648ZM2.88513 10.2681H4.21934H4.48618C5.76702 10.3209 6.78101 11.3763 6.72765 12.6428C6.72765 13.3289 6.40744 13.9621 5.87375 14.4371C5.39344 14.8065 4.80639 15.0176 4.21934 14.9648H2.88513V10.2681ZM4.0594 14.1735C4.48634 14.2263 4.96666 14.0679 5.28687 13.804C5.60708 13.4874 5.76718 13.0651 5.76718 12.5901C5.76718 12.1679 5.60708 11.7457 5.28687 11.429C4.96666 11.1651 4.48634 11.0068 4.0594 11.0596H3.79255V14.1735H4.0594Z" fill="black"/>
<path fill-rule="evenodd" clip-rule="evenodd" d="M18.1487 10.1592C16.8145 10.1592 15.6937 11.2146 15.6937 12.5867C15.6937 13.906 16.7611 15.0142 18.1487 15.067C19.5362 15.1197 20.6036 14.0115 20.657 12.6395C20.6036 11.2674 19.5362 10.1592 18.1487 10.1592V10.1592Z" fill="#FD6020"/>
</svg>
