<svg width="35" height="25" viewBox="0 0 35 25" fill="none" xmlns="http://www.w3.org/2000/svg">
<rect x="0.563782" y="0.828125" width="34.3818" height="23.5734" rx="3.85431" fill="white"/>
<path fill-rule="evenodd" clip-rule="evenodd" d="M17.9997 17.68C16.8292 18.6901 15.3108 19.2998 13.6516 19.2998C9.94945 19.2998 6.9483 16.2642 6.9483 12.5195C6.9483 8.77489 9.94945 5.73926 13.6516 5.73926C15.3108 5.73926 16.8292 6.34901 17.9997 7.35905C19.1702 6.34901 20.6886 5.73926 22.3478 5.73926C26.0499 5.73926 29.0511 8.77489 29.0511 12.5195C29.0511 16.2642 26.0499 19.2998 22.3478 19.2998C20.6886 19.2998 19.1702 18.6901 17.9997 17.68Z" fill="#ED0006"/>
<path fill-rule="evenodd" clip-rule="evenodd" d="M18.0001 17.6803C19.4415 16.4367 20.3555 14.5861 20.3555 12.5195C20.3555 10.453 19.4415 8.60236 18.0001 7.35873C19.1706 6.34887 20.6888 5.73926 22.3478 5.73926C26.0499 5.73926 29.0511 8.77489 29.0511 12.5195C29.0511 16.2642 26.0499 19.2998 22.3478 19.2998C20.6888 19.2998 19.1705 18.6902 18.0001 17.6803Z" fill="#F9A000"/>
<path fill-rule="evenodd" clip-rule="evenodd" d="M17.9987 17.6803C19.44 16.4367 20.3538 14.5862 20.3538 12.5199C20.3538 10.4535 19.44 8.603 17.9987 7.35938C16.5575 8.603 15.6436 10.4535 15.6436 12.5199C15.6436 14.5862 16.5575 16.4367 17.9987 17.6803Z" fill="#FF5E00"/>
</svg>
