<svg width="36" height="25" viewBox="0 0 36 25" fill="none" xmlns="http://www.w3.org/2000/svg">
<rect x="0.799988" y="0.828125" width="34.3818" height="23.5734" rx="3.85431" fill="white"/>
<path d="M15.5096 16.625H13.5656L14.7815 9.10742H16.7255L15.5096 16.625Z" fill="#00579F"/>
<path d="M22.5563 9.29076C22.1728 9.13865 21.5647 8.9707 20.8126 8.9707C18.8929 8.9707 17.541 9.99432 17.5327 11.4578C17.5167 12.5375 18.5006 13.1372 19.2364 13.4972C19.9886 13.8651 20.2442 14.1052 20.2442 14.4332C20.2366 14.9368 19.6365 15.1689 19.0768 15.1689C18.3006 15.1689 17.8847 15.0492 17.2528 14.7691L16.9968 14.6489L16.7247 16.3365C17.1807 16.5442 18.0207 16.7285 18.8929 16.7366C20.9327 16.7366 22.2606 15.7288 22.2764 14.1692C22.2841 13.3135 21.7646 12.6577 20.6446 12.1219C19.9646 11.7779 19.5482 11.546 19.5482 11.1941C19.5562 10.8741 19.9004 10.5464 20.668 10.5464C21.3 10.5304 21.7643 10.6823 22.1161 10.8343L22.2919 10.9141L22.5563 9.29076Z" fill="#00579F"/>
<path d="M25.1409 13.9618C25.301 13.5299 25.9171 11.8584 25.9171 11.8584C25.909 11.8745 26.0768 11.4186 26.1728 11.1387L26.3087 11.7865C26.3087 11.7865 26.6768 13.5859 26.7568 13.9618C26.4529 13.9618 25.5249 13.9618 25.1409 13.9618ZM27.5406 9.10742H26.0369C25.5732 9.10742 25.2209 9.24327 25.0208 9.73116L22.1332 16.6249H24.173C24.173 16.6249 24.5088 15.697 24.581 15.4972C24.8048 15.4972 26.7891 15.4972 27.077 15.4972C27.1328 15.7611 27.3089 16.6249 27.3089 16.6249H29.1089L27.5406 9.10742Z" fill="#00579F"/>
<path d="M11.9414 9.10742L10.0376 14.2337L9.82953 13.194C9.47755 11.9944 8.37366 10.691 7.14178 10.0429L8.88564 16.617H10.9414L13.9971 9.10742H11.9414Z" fill="#00579F"/>
<path d="M8.26931 9.10742H5.14156L5.10956 9.25933C7.5494 9.88325 9.16526 11.3872 9.82914 13.1948L9.14921 9.73941C9.03726 9.25923 8.69326 9.12326 8.26931 9.10742Z" fill="#FAA61A"/>
</svg>
